<svg width="24" height="23" viewBox="0 0 24 23" fill="none" xmlns="http://www.w3.org/2000/svg">
<path d="M12.3477 1.32373C17.9959 1.32373 22.5752 5.90208 22.5752 11.5503C22.5752 17.1985 17.9959 21.7778 12.3477 21.7778C6.69943 21.7778 2.12109 17.1985 2.12109 11.5503C2.12113 5.90209 6.69945 1.32375 12.3477 1.32373ZM12.3477 2.75049C7.48758 2.75051 3.54789 6.69022 3.54785 11.5503C3.54785 16.4104 7.48756 20.3501 12.3477 20.3501C17.2078 20.3501 21.1475 16.4104 21.1475 11.5503C21.1474 6.69021 17.2078 2.75049 12.3477 2.75049ZM14.5332 8.35498C14.8118 8.07634 15.2643 8.07634 15.543 8.35498C15.8215 8.63352 15.8213 9.08511 15.543 9.36377L13.3564 11.5503L15.543 13.7368C15.8214 14.0154 15.8213 14.467 15.543 14.7456C15.2643 15.0243 14.8118 15.0243 14.5332 14.7456L12.3477 12.5591L10.1611 14.7456C9.8825 15.0242 9.43099 15.0242 9.15234 14.7456C8.8737 14.467 8.8737 14.0155 9.15234 13.7368L11.3379 11.5503L9.15234 9.36377C8.87375 9.08512 8.87372 8.63361 9.15234 8.35498C9.43099 8.07659 9.88256 8.07647 10.1611 8.35498L12.3477 10.5415L14.5332 8.35498Z" fill="#FFF6F1"/>
</svg>
