<svg width="30" height="30" viewBox="0 0 30 30" fill="none" xmlns="http://www.w3.org/2000/svg">
<path fill-rule="evenodd" clip-rule="evenodd" d="M22.5 5.3125C25.7792 5.3125 28.4375 7.97081 28.4375 11.25V18.75C28.4375 22.0292 25.7792 24.6875 22.5 24.6875H7.5C4.22081 24.6875 1.5625 22.0292 1.5625 18.75V11.25C1.5625 7.97081 4.22081 5.3125 7.5 5.3125H22.5ZM26.5625 11.25C26.5625 9.00634 24.7437 7.1875 22.5 7.1875H7.5C5.25634 7.1875 3.4375 9.00634 3.4375 11.25V18.75C3.4375 20.9937 5.25634 22.8125 7.5 22.8125H22.5C24.7437 22.8125 26.5625 20.9937 26.5625 18.75V11.25ZM15.6629 17.2254C15.2968 17.5915 14.7032 17.5915 14.3371 17.2254L11.2121 14.1004C10.846 13.7343 10.846 13.1407 11.2121 12.7746C11.5782 12.4085 12.1718 12.4085 12.5379 12.7746L15 15.2367L17.4621 12.7746C17.8282 12.4085 18.4218 12.4085 18.7879 12.7746C19.154 13.1407 19.154 13.7343 18.7879 14.1004L15.6629 17.2254Z" fill="#FFF6F1"/>
</svg>
