<svg width="62" height="24" viewBox="0 0 62 24" fill="none" xmlns="http://www.w3.org/2000/svg">
<rect x="0.5" y="0.5" width="61" height="23" rx="1.5" stroke="#FFF6F1"/>
<path d="M8.266 17L10.17 7.2H16.512L16.148 9.048H11.724L11.304 11.232H15.588L15.252 12.968H10.954L10.534 15.152H14.972L14.608 17H8.266ZM12.368 6.388L13.852 4.4H15.896L13.964 6.388H12.368ZM20.7623 17.21C17.9203 17.21 16.0863 14.928 16.6323 12.1C17.1923 9.272 19.9083 6.99 22.7503 6.99C24.3043 6.99 25.5643 7.676 26.2783 8.782L24.5843 9.93C24.1223 9.258 23.3663 8.838 22.4003 8.838C20.5943 8.838 18.9003 10.308 18.5503 12.1C18.2003 13.892 19.3203 15.362 21.1263 15.362C22.1063 15.362 23.0303 14.942 23.7443 14.256L24.9903 15.418C23.8423 16.51 22.3163 17.21 20.7623 17.21ZM25.7387 17L27.6427 7.2H29.5467L27.8807 15.796C28.4547 13.15 29.1967 12.086 30.4847 11.288C31.6607 10.574 32.9207 10.098 33.3267 8.558L33.5927 7.2H35.4967L33.5927 17H31.6887L32.6827 11.904C31.9967 12.436 31.2687 12.842 30.6667 13.206C29.5047 13.892 28.3427 14.872 27.9227 17H25.7387ZM34.5393 17L39.8593 7.2H42.2673L43.7793 17H41.7633L41.4833 15.054H37.5913L36.5553 17H34.5393ZM38.4593 13.416H41.2593L40.6713 9.244L38.4593 13.416ZM44.7015 17L46.6055 7.2H50.7215C52.8495 7.2 54.0535 8.656 53.6475 10.756C53.2975 12.548 51.6735 14.074 49.7695 14.074C48.2575 14.074 47.4175 12.87 47.7675 11.064H48.1315C48.0055 11.708 48.7055 12.45 49.6855 12.45C50.6935 12.45 51.5615 11.75 51.7435 10.756C51.9395 9.776 51.3795 9.048 50.3575 9.048H48.1455L46.6055 17H44.7015Z" fill="#FFF6F1"/>
</svg>
