<svg width="74" height="24" viewBox="0 0 74 24" fill="none" xmlns="http://www.w3.org/2000/svg">
<rect x="0.5" y="0.5" width="73" height="23" rx="1.5" stroke="#FFF6F1"/>
<path d="M12.942 17.21C10.1 17.21 8.266 14.928 8.812 12.1C9.372 9.272 12.088 6.99 14.93 6.99C16.484 6.99 17.744 7.676 18.458 8.782L16.764 9.93C16.302 9.258 15.546 8.838 14.58 8.838C12.774 8.838 11.08 10.308 10.73 12.1C10.38 13.892 11.5 15.362 13.306 15.362C14.286 15.362 15.21 14.942 15.924 14.256L17.17 15.418C16.022 16.51 14.496 17.21 12.942 17.21ZM17.9183 17L19.8223 7.2H21.7263L20.1863 15.152H24.3583L23.9803 17H17.9183ZM24.973 17L26.877 7.2H28.781L26.877 17H24.973ZM33.4361 17.21C30.5941 17.21 28.7601 14.928 29.3061 12.1C29.8661 9.272 32.5821 6.99 35.4241 6.99C38.2381 6.99 40.0861 9.272 39.5261 12.1C39.2881 13.304 38.6721 14.396 37.8181 15.264L38.5181 16.132L37.0761 17.35L36.3201 16.412C35.4381 16.916 34.4441 17.21 33.4361 17.21ZM31.2241 12.1C31.0701 12.926 31.2101 13.668 31.5881 14.242C31.1821 13.472 31.4481 12.436 32.2741 11.708C33.2121 10.98 34.3741 11.05 35.0741 11.89L36.7261 13.92C37.1741 13.402 37.4961 12.772 37.6221 12.1C37.9721 10.308 36.8521 8.838 35.0741 8.838C33.2681 8.838 31.5741 10.308 31.2241 12.1ZM31.7561 14.466C32.2181 15.026 32.9321 15.362 33.8001 15.362C34.2901 15.362 34.7661 15.25 35.2141 15.054L33.5621 13.01C33.2681 12.66 32.7221 12.646 32.3161 12.996C31.9101 13.346 31.7981 13.864 32.0641 14.228L31.7561 14.466ZM43.9178 17.21C41.8878 17.21 40.3058 15.558 40.7118 13.514L41.9298 7.2H43.8338L42.6438 13.346C42.4198 14.494 43.1198 15.362 44.2818 15.362C45.4438 15.362 46.4658 14.494 46.7038 13.346L47.8798 7.2H49.7838L48.5658 13.514C48.1598 15.558 45.9618 17.21 43.9178 17.21ZM49.7875 17L51.6915 7.2H58.0335L57.6695 9.048H53.2455L52.8255 11.232H57.1095L56.7735 12.968H52.4755L52.0555 15.152H56.4935L56.1295 17H49.7875ZM57.2291 17L57.5931 15.166L60.5051 11.932C62.0591 10.294 63.0951 9.174 64.7611 9.034H58.9231L59.2731 7.2H65.7971L65.4471 9.034L65.3771 9.398C64.7331 9.664 63.7671 10.84 62.2551 12.506L59.9171 15.166H64.3831L64.0331 17H57.2291Z" fill="#FFF6F1"/>
</svg>
