<svg width="26" height="26" viewBox="0 0 26 26" fill="none" xmlns="http://www.w3.org/2000/svg">
<path fill-rule="evenodd" clip-rule="evenodd" d="M4.61047 13C4.61047 8.36659 8.36659 4.61047 13 4.61047C16.0574 4.61047 18.734 6.24601 20.2006 8.69186H17.5349C17.1592 8.69186 16.8547 8.99641 16.8547 9.37209C16.8547 9.74778 17.1592 10.0523 17.5349 10.0523H21.3002C21.3103 10.0526 21.3205 10.0526 21.3307 10.0523H21.5256C22.2018 10.0523 22.75 9.50414 22.75 8.82791V4.83721C22.75 4.46153 22.4454 4.15698 22.0698 4.15698C21.6941 4.15698 21.3895 4.46153 21.3895 4.83721V8.02958C19.6911 5.16888 16.5702 3.25 13 3.25C7.61522 3.25 3.25 7.61522 3.25 13C3.25 18.3848 7.61522 22.75 13 22.75C17.8883 22.75 21.9354 19.1532 22.6411 14.4616C22.697 14.0901 22.4411 13.7437 22.0696 13.6878C21.6981 13.6319 21.3516 13.8878 21.2957 14.2593C20.6887 18.2951 17.2051 21.3895 13 21.3895C8.36659 21.3895 4.61047 17.6334 4.61047 13Z" fill="#1D1D1D"/>
</svg>
