<svg width="26" height="26" viewBox="0 0 26 26" fill="none" xmlns="http://www.w3.org/2000/svg">
<path fill-rule="evenodd" clip-rule="evenodd" d="M11.8964 1.35419C11.5273 1.35419 11.2046 1.60297 11.1106 1.9599L10.5278 4.1745L8.50363 5.02778L7.04031 3.72625C6.71879 3.44028 6.23007 3.45456 5.9258 3.75883L3.75914 5.9255C3.46473 6.2199 3.44051 6.68922 3.70305 7.01236L4.97438 8.57715L4.14301 10.6212L1.98234 11.1254C1.61463 11.2113 1.35449 11.5391 1.35449 11.9167V14.0834C1.35449 14.4497 1.59962 14.7707 1.95301 14.8672L4.173 15.4732L5.02761 17.5006L3.72717 18.9593C3.44059 19.2808 3.45462 19.77 3.75913 20.0745L5.9258 22.2412C6.22054 22.5359 6.6905 22.5598 7.01361 22.2965L8.57902 21.0208L10.5762 21.8424L11.1292 24.0323C11.2203 24.3931 11.5449 24.6459 11.917 24.6459H14.0837C14.4556 24.6459 14.78 24.3934 14.8713 24.0328L15.4261 21.8423L17.482 20.991C17.6919 21.1641 17.9498 21.3849 18.2012 21.6037C18.4051 21.7812 18.5945 21.9484 18.7331 22.0713C18.8023 22.1327 18.8587 22.183 18.8977 22.2178L18.9579 22.2716C19.2792 22.5597 19.7697 22.5464 20.0749 22.2412L22.2415 20.0745C22.5405 19.7755 22.5602 19.2972 22.2867 18.9746L20.9996 17.4563L21.8447 15.4157L24.0381 14.845C24.3961 14.7518 24.646 14.4286 24.646 14.0587L24.6462 11.9167C24.6462 11.5451 24.3941 11.2208 24.0339 11.1292L21.8528 10.5746L21.0089 8.53676L22.2874 7.02462C22.5602 6.70202 22.5402 6.22422 22.2415 5.9255L20.0749 3.75883C19.775 3.45895 19.2949 3.44015 18.9725 3.71568L17.4701 4.99956L15.371 4.1363L14.7994 1.96028C14.7056 1.60316 14.3828 1.35419 14.0136 1.35419H11.8964ZM11.9976 4.97469L12.5227 2.97919H13.387L13.9021 4.94031C13.9668 5.18669 14.1433 5.38846 14.3789 5.48534L17.3114 6.69133C17.5934 6.80728 17.9165 6.75563 18.1483 6.55756L19.457 5.43912L20.564 6.5461L19.4483 7.86561C19.252 8.0978 19.2018 8.42016 19.3181 8.70108L20.5072 11.5726C20.6053 11.8093 20.8093 11.986 21.0576 12.0491L23.0211 12.5484L23.0211 13.4305L21.0441 13.9449C20.7976 14.009 20.5955 14.185 20.498 14.4203L19.3085 17.2927C19.1921 17.574 19.2426 17.8968 19.4395 18.129L20.5633 19.4546L19.4665 20.5514C19.4029 20.4956 19.3363 20.4374 19.2681 20.378C18.8649 20.027 18.3602 19.596 18.0825 19.3975C17.8544 19.2344 17.5583 19.2005 17.2992 19.3078L14.4277 20.497C14.1907 20.5951 14.0139 20.7995 13.9509 21.0482L13.4513 23.0209H12.5498L12.0515 21.0478C11.9885 20.7982 11.8109 20.5932 11.5729 20.4953L8.74987 19.3339C8.47419 19.2205 8.15855 19.2672 7.92747 19.4555L6.55593 20.5732L5.45069 19.468L6.58221 18.1987C6.79088 17.9647 6.84622 17.6314 6.72442 17.3425L5.5169 14.4779C5.41999 14.248 5.22285 14.0754 4.98218 14.0097L2.97949 13.4629V12.5614L4.92185 12.1081C5.1787 12.0482 5.39047 11.8673 5.48983 11.623L6.66077 8.74405C6.77247 8.46941 6.72571 8.15572 6.53874 7.9256L5.42633 6.5564L6.53296 5.44977L7.80679 6.58275C8.04085 6.79093 8.37373 6.84602 8.66238 6.72434L11.5274 5.5166C11.7597 5.41868 11.9334 5.21848 11.9976 4.97469ZM10.5628 13C10.5628 11.6538 11.6541 10.5625 13.0003 10.5625C14.3465 10.5625 15.4378 11.6538 15.4378 13C15.4378 14.3462 14.3465 15.4375 13.0003 15.4375C11.6541 15.4375 10.5628 14.3462 10.5628 13ZM13.0003 8.93752C10.7567 8.93752 8.93783 10.7564 8.93783 13C8.93783 15.2437 10.7567 17.0625 13.0003 17.0625C15.244 17.0625 17.0628 15.2437 17.0628 13C17.0628 10.7564 15.244 8.93752 13.0003 8.93752Z" fill="#1D1D1D"/>
</svg>
