<svg width="40" height="40" viewBox="0 0 40 40" fill="none" xmlns="http://www.w3.org/2000/svg">
<path fill-rule="evenodd" clip-rule="evenodd" d="M13.7498 3.33334C13.7498 2.64299 14.3095 2.08334 14.9998 2.08334L24.9998 2.08334C25.6902 2.08334 26.2498 2.64299 26.2498 3.33334C26.2498 4.0237 25.6902 4.58334 24.9998 4.58334L14.9998 4.58334C14.3095 4.58334 13.7498 4.0237 13.7498 3.33334ZM19.9998 15.4167C20.6902 15.4167 21.2498 15.9763 21.2498 16.6667L21.2498 23.3333C21.2498 24.0237 20.6902 24.5833 19.9998 24.5833C19.3095 24.5833 18.7498 24.0237 18.7498 23.3333V16.6667C18.7498 15.9763 19.3095 15.4167 19.9998 15.4167ZM7.9165 23.3333C7.9165 16.6599 13.3264 11.25 19.9998 11.25C26.6733 11.25 32.0832 16.6599 32.0832 23.3333C32.0832 30.0068 26.6733 35.4167 19.9998 35.4167C13.3264 35.4167 7.9165 30.0068 7.9165 23.3333ZM19.9998 8.75001C11.9457 8.75001 5.4165 15.2792 5.4165 23.3333C5.4165 31.3875 11.9457 37.9167 19.9998 37.9167C28.054 37.9167 34.5832 31.3875 34.5832 23.3333C34.5832 15.2792 28.054 8.75001 19.9998 8.75001Z" fill="#F1203C"/>
</svg>
