<svg width="35" height="35" viewBox="0 0 35 35" fill="none" xmlns="http://www.w3.org/2000/svg">
<path d="M14.0231 5.31066C15.5652 2.62887 19.4352 2.62887 20.9772 5.31066L32.7058 25.7091C34.2431 28.3827 32.3133 31.7189 29.2292 31.7189H5.77118C2.68711 31.7189 0.757295 28.3827 2.29462 25.7091L14.0231 5.31066ZM19.0808 6.4005C18.3798 5.18156 16.6205 5.18152 15.9196 6.4005L4.1911 26.7999C3.49248 28.0152 4.36938 29.5314 5.77118 29.5314H29.2292C30.6308 29.5314 31.5085 28.0151 30.8102 26.7999L19.0808 6.4005ZM16.7018 24.0587C17.1059 23.6099 17.7968 23.5737 18.2458 23.9776C18.6947 24.3816 18.7315 25.0726 18.3278 25.5216L18.3132 25.5382C17.9091 25.9872 17.2172 26.0233 16.7683 25.6192C16.3194 25.2152 16.2833 24.5243 16.6872 24.0753L16.7018 24.0587ZM17.4997 12.0314C18.1038 12.0314 18.5934 12.521 18.5934 13.1251V18.9581C18.5934 19.5622 18.1038 20.0519 17.4997 20.0519C16.8957 20.0517 16.4059 19.5621 16.4059 18.9581V13.1251C16.4059 12.5211 16.8957 12.0315 17.4997 12.0314Z" fill="#F1203C"/>
</svg>
