<svg width="192" height="192" viewBox="0 0 192 192" fill="none" xmlns="http://www.w3.org/2000/svg">
<g clip-path="url(#clip0_52_73)">
<path d="M145.753 94.9022C147.998 99.1999 152.06 103.357 159.138 105.08C167.943 107.223 174.472 104.088 178.621 100.454C180.647 98.6804 182.109 96.7963 183.065 95.3674C183.546 94.6474 183.91 94.0269 184.16 93.57C184.286 93.3411 184.384 93.1515 184.455 93.0098C184.49 92.9388 184.52 92.8794 184.542 92.833C184.553 92.8099 184.563 92.7902 184.571 92.7735C184.575 92.7651 184.578 92.7573 184.581 92.7506C184.583 92.7472 184.585 92.744 184.586 92.7411C184.587 92.7397 184.588 92.7373 184.588 92.7366C184.584 92.7326 184.461 92.6744 181.346 91.2332L181.347 91.2327L184.59 92.7335L185.809 90.0942L185.946 90.0571C185.911 90.1812 185.878 90.3064 185.841 90.4309C184.619 94.5673 182.484 97.4852 180.667 99.3667C179.757 100.308 178.936 100.982 178.367 101.404C178.083 101.614 177.865 101.76 177.734 101.845C177.672 101.885 177.629 101.911 177.608 101.923L176.275 102.679L175.708 104.126L147.269 176.75L142.537 175.538L139.067 174.514L139.036 174.506L139.006 174.497L133.779 173.037L145.567 96.1262L145.753 94.9022ZM144.517 104.53L134.522 168.883L133.907 172.838L137.791 173.803L142.971 175.09L146.674 176.011L148.091 172.467L172.08 112.488L174.533 106.353L167.928 106.484L167.926 106.485C167.92 106.485 167.908 106.485 167.89 106.485C167.855 106.486 167.799 106.486 167.723 106.486C167.57 106.487 167.338 106.486 167.043 106.482C166.45 106.473 165.611 106.449 164.645 106.387C162.772 106.266 160.64 106.014 158.904 105.547L158.562 105.451L158.233 105.349C156.589 104.82 154.964 103.975 153.663 103.185C152.987 102.774 152.436 102.4 152.061 102.135C151.875 102.003 151.734 101.9 151.646 101.834C151.602 101.801 151.572 101.777 151.555 101.764C151.547 101.758 151.542 101.754 151.541 101.753L151.542 101.754L145.664 97.1354L144.517 104.53ZM145.693 73.0418C150.867 64.5586 161.858 60.3614 170.871 63.285L170.871 63.2842C179.945 66.2281 187.098 74.1642 186.818 84.4273L186.31 84.5829C186.294 84.3073 186.274 84.0109 186.246 83.6964C186.086 81.9084 185.694 79.4481 184.748 76.8294C182.873 71.6447 178.738 65.7459 170.244 63.558L169.408 63.3584L168.584 63.1891C160.151 61.5916 154.139 64.6524 150.349 68.3035C148.462 70.1207 147.161 72.0374 146.332 73.4855C146.294 73.5523 146.258 73.6188 146.221 73.6838L145.693 73.0418ZM143.162 81.6872L147.373 82.1266C143.167 81.6885 143.161 81.6891 143.161 81.6912C143.161 81.692 143.16 81.6945 143.16 81.6961C143.16 81.6992 143.16 81.7031 143.159 81.7066C143.159 81.7138 143.157 81.7219 143.156 81.7309C143.155 81.7492 143.153 81.7714 143.151 81.7973C143.146 81.849 143.141 81.9156 143.135 81.996C143.123 82.1568 143.11 82.3742 143.1 82.6408C143.08 83.1727 143.074 83.9082 143.118 84.791C143.205 86.5405 143.497 88.9556 144.342 91.5423C144.478 91.9582 144.629 92.378 144.796 92.8005C144.712 92.6241 144.611 92.4041 144.501 92.1432C144.142 91.2956 143.685 90.0423 143.328 88.496C142.665 85.6339 142.37 81.8893 143.561 77.8451L143.162 81.6872ZM150.891 79.3516C150.891 79.3522 150.892 79.3528 150.893 79.3536L150.894 79.3553C150.893 79.3545 150.892 79.354 150.892 79.3533L150.891 79.3516Z" fill="url(#paint0_linear_52_73)" stroke="url(#paint1_linear_52_73)" stroke-width="8.75649"/>
<path d="M180.835 0.641347C180.835 0.787386 180.676 0.800662 180.023 0.694452C179.343 0.588241 179.17 0.588241 179.05 0.747557C178.943 0.893597 178.77 0.920149 178.37 0.853768C177.997 0.787386 177.797 0.800662 177.704 0.933426C177.597 1.05291 177.371 1.07947 176.931 1.03964C176.438 0.986531 176.304 0.999807 176.304 1.15912C176.304 1.33172 176.184 1.33172 175.558 1.2255C175.012 1.13257 174.732 1.14585 174.505 1.26533C174.319 1.37154 174.012 1.3981 173.719 1.34499C173.373 1.27861 173.226 1.30516 173.146 1.46448C173.039 1.63707 172.919 1.65035 172.453 1.54414C171.987 1.4512 171.88 1.46448 171.813 1.62379C171.747 1.78311 171.6 1.80966 171.094 1.74328C170.547 1.66362 170.441 1.69018 170.441 1.86277C170.441 2.00881 170.361 2.06191 170.214 2.00881C170.081 1.96898 169.694 1.9026 169.361 1.86277C168.881 1.79639 168.708 1.80966 168.628 1.96898C168.535 2.12829 168.388 2.15485 167.935 2.06191C167.482 1.98226 167.336 2.00881 167.282 2.14157C167.229 2.28761 167.056 2.31416 166.563 2.24778C166.003 2.16812 165.91 2.19468 165.91 2.38054C165.91 2.53986 165.83 2.59297 165.683 2.53986C164.857 2.31416 164.577 2.31416 164.577 2.52658C164.577 2.71245 164.47 2.72573 163.951 2.65935C163.591 2.60624 163.204 2.53986 163.071 2.50003C162.938 2.47348 162.805 2.52658 162.765 2.64607C162.711 2.80539 162.551 2.83194 162.032 2.76556C161.499 2.69918 161.379 2.72573 161.379 2.89832C161.379 3.05764 161.285 3.07091 160.886 2.97798C160.179 2.81866 160.046 2.83194 160.046 3.05764C160.046 3.20368 159.913 3.23023 159.38 3.16385C158.847 3.09747 158.713 3.12402 158.713 3.28333C158.713 3.44265 158.567 3.45593 157.834 3.33644C157.141 3.24351 156.941 3.24351 156.848 3.38955C156.768 3.50903 156.581 3.53558 156.208 3.4692C155.795 3.40282 155.635 3.44265 155.542 3.58869C155.448 3.76128 155.328 3.77456 154.862 3.66835C154.395 3.57541 154.289 3.58869 154.222 3.74801C154.156 3.90732 154.009 3.93387 153.503 3.86749C152.956 3.78783 152.85 3.81439 152.85 3.98698C152.85 4.13302 152.77 4.18612 152.623 4.13302C152.49 4.09319 152.103 4.02681 151.77 3.98698C151.29 3.9206 151.117 3.93387 151.037 4.09319C150.944 4.25251 150.797 4.27906 150.344 4.18612C149.891 4.10647 149.745 4.13302 149.691 4.26578C149.638 4.41182 149.465 4.43837 148.972 4.37199C148.412 4.29234 148.319 4.31889 148.319 4.50476C148.319 4.66407 148.239 4.71718 148.092 4.66407C147.266 4.43837 146.986 4.43837 146.986 4.6508C146.986 4.83666 146.879 4.84994 146.36 4.78356C146 4.73045 145.613 4.66407 145.48 4.62424C145.347 4.59769 145.213 4.6508 145.173 4.77028C145.12 4.9296 144.96 4.95615 144.441 4.88977C143.907 4.82339 143.788 4.84994 143.788 5.00926C143.788 5.18185 143.681 5.19512 143.228 5.10219C142.455 4.95615 142.455 4.95615 142.455 5.18185C142.455 5.32789 142.322 5.35444 141.789 5.28806C141.309 5.23495 141.122 5.26151 141.122 5.38099C141.122 5.50048 140.896 5.51376 140.189 5.44738C139.483 5.38099 139.256 5.39427 139.256 5.51376C139.256 5.63324 139.083 5.6598 138.59 5.59341C138.03 5.51376 137.924 5.54031 137.924 5.7129C137.924 5.92532 137.644 5.92532 136.831 5.69963C136.671 5.64652 136.591 5.69963 136.591 5.85894C136.591 6.04481 136.498 6.07136 135.925 5.9917C135.365 5.91205 135.258 5.9386 135.258 6.12447C135.258 6.24395 135.179 6.31034 135.085 6.27051C134.979 6.23068 134.566 6.1643 134.152 6.11119C133.499 6.03153 133.393 6.04481 133.393 6.23068C133.393 6.38999 133.313 6.42982 133.06 6.37672C132.873 6.33689 132.58 6.28378 132.393 6.24395C132.153 6.19085 132.06 6.23068 132.06 6.37672C132.06 6.54931 131.94 6.57586 131.394 6.4962C130.821 6.41655 130.727 6.4431 130.727 6.62897C130.727 6.78828 130.647 6.84139 130.501 6.78828C129.675 6.56259 129.395 6.56259 129.395 6.77501C129.395 6.9476 129.288 6.97415 128.728 6.89449C128.195 6.82811 128.062 6.84139 128.062 7.0007C128.062 7.16002 127.942 7.1733 127.462 7.10692C126.996 7.04053 126.823 7.05381 126.743 7.21313C126.663 7.35917 126.49 7.39899 126.09 7.34589C125.637 7.27951 125.543 7.30606 125.49 7.51848C125.437 7.69107 125.357 7.74418 125.184 7.6778C125.05 7.62469 124.89 7.6778 124.784 7.82384C124.691 7.9566 124.504 8.03626 124.371 8.00971C124.197 7.98315 124.091 8.07609 123.998 8.36817C123.891 8.66024 123.784 8.75318 123.571 8.7399C123.398 8.71335 123.265 8.80628 123.225 8.9656C123.185 9.12492 123.038 9.23113 122.878 9.23113C122.678 9.23113 122.558 9.39044 122.372 9.90822C122.185 10.4127 122.078 10.5588 121.905 10.5057C121.719 10.4658 121.625 10.5986 121.465 11.1296C121.359 11.5147 116.468 32.5444 110.604 57.8756C104.741 83.2068 99.903 103.971 99.8764 104.024C99.7431 104.236 99.2634 103.998 99.3433 103.772C99.3966 103.599 99.2767 103.506 98.8103 103.387C98.3572 103.267 98.2106 103.161 98.2372 103.002C98.2639 102.842 98.1306 102.75 97.7708 102.657C97.4243 102.577 97.2244 102.431 97.1444 102.232C97.0645 102.033 96.8646 101.887 96.5181 101.807C96.1716 101.727 96.025 101.621 96.0517 101.475C96.0783 101.329 95.8518 101.209 95.2121 101.024C94.6124 100.851 94.3458 100.705 94.3458 100.559C94.3458 100.413 94.0926 100.28 93.4796 100.108C92.8266 99.935 92.6134 99.8288 92.64 99.6694C92.6667 99.5101 92.4002 99.3774 91.5073 99.1384C90.6411 98.8994 90.3479 98.7666 90.3745 98.6073C90.4012 98.4746 90.2546 98.3684 89.9481 98.2887C87.8958 97.7709 87.416 97.6116 87.416 97.439C87.416 97.2133 86.8163 97.0407 82.885 96.1379C78.5272 95.1289 78.1274 95.0626 77.9008 95.2484C77.7676 95.3679 77.3811 95.3281 76.2883 95.1157C75.1422 94.9032 74.8224 94.8767 74.7424 95.0094C74.6625 95.1555 74.4359 95.1555 73.6097 95.0094C73.0499 94.9165 72.5036 94.8103 72.3969 94.7705C72.3037 94.7306 72.2237 94.797 72.2237 94.9165C72.2237 95.1688 72.2237 95.1688 71.2242 94.9829C70.5712 94.8634 70.4113 94.8767 70.2913 95.036C70.1714 95.1953 70.0248 95.2086 69.4518 95.1024C68.9187 94.9962 68.6655 94.9962 68.4256 95.1289C68.239 95.2351 67.9325 95.2617 67.6394 95.2086C67.2929 95.1422 67.1463 95.1688 67.0663 95.3281C66.9597 95.5007 66.8398 95.5139 66.3867 95.421C65.9069 95.3148 65.8269 95.3281 65.7603 95.5272C65.6937 95.7131 65.6004 95.7396 65.1206 95.6467C64.6942 95.5803 64.5343 95.5936 64.4543 95.7396C64.3743 95.8724 64.1878 95.899 63.7613 95.8591C63.2682 95.7928 63.1616 95.8193 63.1616 95.9919C63.1616 96.1645 63.0817 96.191 62.7618 96.1247C62.442 96.0583 62.362 96.0848 62.362 96.2707C62.362 96.4566 62.2687 96.4831 61.7623 96.4167C61.2826 96.3504 61.136 96.3769 61.0693 96.5362C61.016 96.669 60.8961 96.7221 60.6829 96.669C60.4696 96.6159 60.3764 96.6557 60.3364 96.815C60.2964 97.0009 60.1765 97.0407 59.7367 97.0142C59.4435 96.9876 59.1503 97.0274 59.097 97.1071C59.057 97.1868 58.8705 97.2531 58.6839 97.2531C58.484 97.2531 58.364 97.3328 58.364 97.4656C58.364 97.6249 58.2841 97.6647 58.0442 97.5983C57.791 97.5319 57.6977 97.5851 57.6311 97.7709C57.5778 97.9435 57.4712 97.9966 57.2313 97.9435C56.9781 97.9037 56.8981 97.9435 56.8981 98.1161C56.8981 98.2887 56.8182 98.3285 56.565 98.2887C56.3384 98.2356 56.2185 98.2887 56.1652 98.448C56.1118 98.6073 55.9919 98.6604 55.7654 98.6073C55.5255 98.5675 55.4322 98.6073 55.4322 98.7666C55.4322 98.8994 55.3123 98.9791 55.099 98.9791C54.8858 98.9791 54.7659 99.0587 54.7659 99.1915C54.7659 99.3508 54.6859 99.3906 54.446 99.3243C54.1928 99.2579 54.0995 99.311 54.0329 99.4968C53.9796 99.6694 53.873 99.7225 53.6997 99.6827C53.5398 99.6429 53.4065 99.696 53.3532 99.8288C53.3133 99.9482 53.1267 100.041 52.9534 100.041C52.7535 100.041 52.6336 100.121 52.6336 100.254C52.6336 100.413 52.5403 100.453 52.3138 100.413C52.0739 100.36 51.9673 100.413 51.9273 100.599C51.8873 100.732 51.7407 100.838 51.5675 100.838C51.3676 100.838 51.2343 100.957 51.1277 101.236C51.0078 101.541 50.9145 101.608 50.6879 101.555C50.4747 101.502 50.3814 101.555 50.3281 101.754C50.2881 101.94 50.1815 101.993 49.9949 101.94C49.7817 101.887 49.7018 101.966 49.5818 102.338C49.4486 102.71 49.3686 102.789 49.1554 102.736C48.9555 102.683 48.8622 102.736 48.8089 102.949C48.7556 103.148 48.649 103.227 48.4624 103.201C48.2492 103.174 48.1559 103.267 48.0493 103.599C47.9426 103.971 47.876 104.024 47.6228 103.971C47.3563 103.905 47.303 103.958 47.223 104.369C47.143 104.768 47.0897 104.834 46.8365 104.794C46.5833 104.741 46.5034 104.807 46.3834 105.232C46.2635 105.617 46.1835 105.71 45.9836 105.657C45.7837 105.604 45.6905 105.697 45.5705 106.082C45.4506 106.454 45.3573 106.56 45.1574 106.507C44.9575 106.454 44.8642 106.573 44.691 107.157C44.5044 107.728 44.4111 107.861 44.1845 107.834C43.958 107.808 43.878 107.941 43.7314 108.498C43.5715 109.069 43.4916 109.189 43.265 109.162C43.0385 109.135 42.9452 109.281 42.7319 110.025C42.532 110.729 42.4121 110.928 42.1856 110.954C41.959 110.981 41.8524 111.207 41.5859 112.162C41.3193 113.132 41.226 113.331 41.0395 113.278C40.7596 113.211 40.5597 113.862 39.6402 117.924C38.9738 120.898 38.9605 121.018 39.2404 121.018C39.4803 121.018 39.4803 121.243 39.2404 122.345C38.9872 123.474 39.0005 123.673 39.2537 123.673C39.4803 123.673 39.4803 124.031 39.2271 125.213C39.1604 125.558 39.1871 125.651 39.4136 125.718C39.6402 125.797 39.6535 125.864 39.5602 126.434C39.4136 127.151 39.4803 127.39 39.7734 127.39C39.92 127.39 39.9733 127.47 39.92 127.616C39.8801 127.749 39.8134 128.067 39.7734 128.346C39.6935 128.745 39.7201 128.838 39.9467 128.904C40.1732 128.984 40.1999 129.076 40.1466 129.515C40.08 129.953 40.1066 130.046 40.3065 130.046C40.4931 130.046 40.5197 130.139 40.4798 130.563C40.4398 131.002 40.4798 131.108 40.6797 131.161C40.8929 131.214 40.9329 131.32 40.8796 131.718C40.8262 132.117 40.8662 132.223 41.0794 132.276C41.2927 132.329 41.3193 132.422 41.266 132.847C41.2127 133.298 41.2394 133.365 41.4526 133.365C41.6392 133.365 41.7058 133.458 41.7058 133.697C41.7058 133.909 41.7858 134.029 41.9057 134.029C42.0523 134.029 42.1056 134.175 42.1056 134.546C42.1056 134.945 42.1589 135.077 42.3588 135.13C42.5454 135.17 42.5987 135.277 42.5454 135.476C42.4921 135.701 42.532 135.754 42.7719 135.754C43.0385 135.754 43.0651 135.808 43.0118 136.286C42.9718 136.724 43.0118 136.817 43.1984 136.817C43.3583 136.817 43.4383 136.923 43.4383 137.135C43.4383 137.348 43.5315 137.48 43.7181 137.52C43.918 137.573 43.9846 137.666 43.918 137.812C43.8647 137.972 43.918 138.065 44.1046 138.104C44.2512 138.144 44.3711 138.29 44.3711 138.436C44.3711 138.596 44.4911 138.728 44.651 138.768C44.8375 138.821 44.9042 138.928 44.8642 139.087C44.8242 139.246 44.8909 139.339 45.1041 139.392C45.3306 139.445 45.3973 139.538 45.344 139.724C45.304 139.883 45.3706 139.99 45.5572 140.043C45.7304 140.083 45.837 140.215 45.837 140.388C45.837 140.587 45.917 140.667 46.1169 140.667C46.3301 140.667 46.3834 140.733 46.3301 140.932C46.2768 141.131 46.3435 141.224 46.5833 141.277C46.8232 141.344 46.8898 141.423 46.8365 141.596C46.7832 141.755 46.8499 141.848 47.0364 141.901C47.1964 141.941 47.303 142.074 47.303 142.247C47.303 142.432 47.3829 142.525 47.5695 142.525C47.7427 142.525 47.836 142.618 47.836 142.778C47.836 142.924 47.956 143.083 48.1026 143.123C48.2492 143.163 48.3691 143.309 48.3691 143.441C48.3691 143.601 48.5423 143.734 48.9022 143.84C49.3419 143.973 49.4352 144.052 49.3686 144.251C49.3153 144.437 49.3686 144.504 49.5951 144.543C49.795 144.57 49.9017 144.676 49.9017 144.835C49.9017 145.021 50.0482 145.128 50.4347 145.247C50.8079 145.353 50.9545 145.459 50.9278 145.619C50.9011 145.765 51.0078 145.871 51.2343 145.924C51.4742 145.977 51.5542 146.07 51.5008 146.229C51.4475 146.402 51.5675 146.495 52.0206 146.615C52.5003 146.734 52.5936 146.814 52.5403 147.013C52.487 147.212 52.5936 147.292 53.0601 147.385C53.4865 147.477 53.6331 147.57 53.6198 147.743C53.6064 147.916 53.753 148.022 54.1795 148.128C54.5926 148.247 54.7659 148.354 54.7659 148.526C54.7659 148.672 54.9391 148.805 55.2989 148.911C55.6321 149.018 55.832 149.15 55.832 149.283C55.832 149.429 56.0985 149.575 56.6982 149.748C57.3379 149.934 57.5644 150.053 57.5644 150.226C57.5644 150.398 57.791 150.518 58.4173 150.677C59.017 150.85 59.2569 150.969 59.2436 151.115C59.2303 151.261 59.3902 151.367 59.6967 151.447C61.2159 151.832 61.5491 151.965 61.4825 152.151C61.4025 152.323 62.0289 152.576 63.2282 152.815C64.1078 153 64.5076 153.173 64.4543 153.346C64.361 153.545 64.9341 153.704 69.3718 154.726C73.7296 155.709 73.8362 155.735 73.9695 155.51C74.0628 155.35 74.9823 155.47 76.848 155.895C77.0746 155.948 77.1545 155.908 77.1545 155.735C77.1545 155.603 77.2212 155.536 77.3278 155.576C77.4211 155.616 77.9675 155.722 78.5405 155.815C79.3934 155.948 79.5933 155.948 79.6866 155.802C79.7932 155.642 80.3662 155.669 81.2591 155.895C81.4724 155.948 81.5523 155.908 81.5523 155.735C81.5523 155.563 81.6323 155.523 81.8855 155.589C82.7917 155.815 83.3781 155.828 83.458 155.629C83.5247 155.47 83.6313 155.457 84.0977 155.549C84.5641 155.656 84.6841 155.642 84.7774 155.483C84.8706 155.324 85.0306 155.297 85.4837 155.364C85.9501 155.417 86.0967 155.39 86.1633 155.231C86.2033 155.111 86.3099 155.045 86.3899 155.072C86.4832 155.098 86.7497 155.151 86.9896 155.191C87.3227 155.244 87.416 155.218 87.416 155.045C87.416 154.872 87.5226 154.846 88.0823 154.912C88.6287 154.979 88.7487 154.952 88.7487 154.779C88.7487 154.633 88.842 154.594 89.0952 154.647C89.3217 154.687 89.4683 154.647 89.5083 154.514C89.5749 154.355 89.7215 154.328 90.1746 154.394C90.6277 154.448 90.7477 154.434 90.7477 154.275C90.7477 154.142 90.8809 154.076 91.1475 154.076C91.4007 154.076 91.5473 154.009 91.5473 153.89C91.5473 153.744 91.6805 153.717 92.0937 153.77C92.5068 153.837 92.68 153.797 92.76 153.651C92.8266 153.518 92.9999 153.465 93.2131 153.518C93.4663 153.558 93.5463 153.518 93.5463 153.346C93.5463 153.173 93.6262 153.133 93.8661 153.173C94.106 153.226 94.2126 153.173 94.2526 152.987C94.3059 152.788 94.3992 152.761 94.6657 152.828C94.9322 152.894 95.0122 152.854 95.0122 152.695C95.0122 152.562 95.1321 152.483 95.3453 152.483C95.5586 152.483 95.6785 152.403 95.6785 152.27C95.6785 152.111 95.7585 152.071 96.0117 152.137C96.2515 152.204 96.3715 152.164 96.4248 152.018C96.4781 151.912 96.6513 151.819 96.8246 151.819C97.0245 151.819 97.1444 151.739 97.1444 151.606C97.1444 151.447 97.2377 151.407 97.4643 151.447C97.7041 151.5 97.8108 151.447 97.8641 151.261C97.904 151.075 97.9973 151.022 98.1839 151.089C98.3838 151.142 98.4771 151.089 98.5304 150.916C98.597 150.73 98.7036 150.677 98.9435 150.73C99.1834 150.77 99.2767 150.73 99.2767 150.571C99.2767 150.438 99.3966 150.358 99.6099 150.358C99.8231 150.358 99.943 150.279 99.943 150.159C99.943 150.04 100.063 149.96 100.263 149.96C100.489 149.96 100.623 149.841 100.743 149.549C100.876 149.243 100.982 149.164 101.182 149.217C101.356 149.256 101.462 149.203 101.502 149.018C101.556 148.818 101.649 148.765 101.875 148.818C102.115 148.885 102.195 148.818 102.302 148.46C102.395 148.141 102.488 148.048 102.715 148.062C102.888 148.088 103.021 147.995 103.075 147.823C103.141 147.637 103.248 147.57 103.421 147.61C103.608 147.663 103.701 147.57 103.834 147.225C103.954 146.88 104.061 146.774 104.261 146.8C104.461 146.827 104.554 146.734 104.647 146.402C104.741 146.083 104.861 145.977 105.074 145.977C105.287 145.977 105.407 145.871 105.5 145.539C105.593 145.22 105.687 145.128 105.887 145.154C106.1 145.181 106.193 145.088 106.286 144.756C106.38 144.464 106.513 144.304 106.7 144.278C106.913 144.251 107.046 144.065 107.206 143.574C107.393 143.03 107.486 142.91 107.686 142.964C107.886 143.017 107.979 142.897 108.166 142.3C108.352 141.729 108.445 141.596 108.632 141.636C108.832 141.689 108.925 141.53 109.152 140.733C109.392 139.937 109.472 139.777 109.685 139.83C109.925 139.897 110.045 139.591 110.444 138.011C110.524 137.693 110.644 137.534 110.831 137.507C111.044 137.48 111.151 137.295 111.311 136.71C111.537 135.94 131.261 50.8657 131.261 50.7064C131.261 50.6665 131.38 50.6533 131.54 50.6931C131.7 50.7329 131.834 50.6931 131.887 50.5736C131.94 50.4276 132.1 50.401 132.606 50.4674C133.166 50.547 133.26 50.5205 133.26 50.3346C133.26 50.1753 133.339 50.1222 133.499 50.1753C134.312 50.401 134.592 50.401 134.592 50.1886C134.592 50.016 134.699 49.9894 135.258 50.0691C135.792 50.1355 135.925 50.1222 135.925 49.9629C135.925 49.8036 136.071 49.7903 136.804 49.9098C137.497 50.016 137.697 50.0027 137.791 49.8567C137.871 49.7372 138.07 49.7106 138.51 49.7637C138.99 49.8301 139.123 49.8168 139.123 49.6575C139.123 49.5115 139.256 49.4849 139.79 49.5513C140.283 49.6044 140.456 49.5779 140.456 49.4584C140.456 49.3389 140.629 49.3123 141.122 49.3787C141.682 49.4584 141.789 49.4318 141.789 49.2592C141.789 49.1132 141.868 49.0601 142.028 49.1132C142.148 49.1398 142.575 49.2194 142.961 49.2592C143.561 49.3389 143.654 49.3256 143.654 49.1265C143.654 48.9141 143.921 48.9141 144.76 49.1398C144.907 49.1929 144.987 49.1398 144.987 48.9804C144.987 48.7946 145.08 48.768 145.653 48.8477C146.2 48.9273 146.32 48.9008 146.32 48.7282C146.32 48.5822 146.413 48.5423 146.653 48.5954C146.839 48.6353 147.132 48.6884 147.319 48.7282C147.572 48.7813 147.652 48.7415 147.652 48.5822C147.652 48.3963 147.759 48.383 148.412 48.4627C148.825 48.5158 149.238 48.5822 149.345 48.622C149.438 48.6618 149.518 48.5954 149.518 48.4759C149.518 48.2901 149.625 48.2635 150.171 48.3432C150.677 48.4096 150.824 48.383 150.891 48.2237C150.957 48.0644 151.064 48.0511 151.477 48.144C152.157 48.3033 152.183 48.2901 152.183 48.0511C152.183 47.8785 152.29 47.8652 152.796 47.9449C153.236 48.0113 153.436 47.9847 153.516 47.8652C153.609 47.7192 153.809 47.7192 154.502 47.8121C155.235 47.9316 155.382 47.9183 155.382 47.759C155.382 47.5997 155.515 47.5732 156.048 47.6395C156.581 47.7059 156.714 47.6794 156.714 47.5333C156.714 47.3076 156.714 47.3076 157.487 47.4537C157.94 47.5466 158.047 47.5333 158.047 47.3607C158.047 47.2014 158.167 47.1881 158.7 47.2545C159.193 47.3209 159.366 47.2943 159.42 47.1616C159.473 47.0155 159.633 47.0023 160.139 47.0819C161.085 47.2412 161.245 47.228 161.245 46.989C161.245 46.7898 161.539 46.7898 162.351 47.0155C162.498 47.0686 162.578 47.0155 162.578 46.8695C162.578 46.6836 162.671 46.6571 163.244 46.7367C163.804 46.8164 163.911 46.7898 163.911 46.6172C163.911 46.4579 164.004 46.4181 164.244 46.4712C164.43 46.511 164.724 46.5641 164.91 46.604C165.15 46.6571 165.243 46.6172 165.243 46.4712C165.243 46.2853 165.363 46.2721 165.95 46.3384C166.323 46.3783 166.749 46.4447 166.883 46.4845C167.029 46.5376 167.109 46.4845 167.109 46.3384C167.109 46.1659 167.216 46.1393 167.762 46.219C168.268 46.2853 168.415 46.2588 168.482 46.0995C168.548 45.9402 168.655 45.9269 169.068 46.0198C169.748 46.1791 169.774 46.1659 169.774 45.9269C169.774 45.7543 169.881 45.741 170.387 45.8207C170.827 45.8871 171.027 45.8605 171.107 45.741C171.2 45.595 171.4 45.595 172.093 45.6879C172.826 45.8074 172.973 45.7941 172.973 45.6348C172.973 45.4755 173.106 45.4489 173.639 45.5153C174.172 45.5817 174.305 45.5551 174.305 45.4091C174.305 45.1834 174.305 45.1834 175.078 45.3294C175.531 45.4224 175.638 45.4091 175.638 45.2365C175.638 45.0772 175.758 45.0639 176.251 45.1303C176.718 45.1834 176.917 45.1569 177.024 45.0241C177.131 44.8781 177.304 44.8515 177.744 44.9312C178.197 45.0241 178.303 45.0108 178.303 44.8382C178.303 44.6922 178.437 44.6524 178.916 44.7187C179.356 44.7586 179.543 44.732 179.596 44.5992C179.636 44.493 179.809 44.4134 179.983 44.4134C180.182 44.4134 180.302 44.3337 180.302 44.201C180.302 44.0416 180.382 44.0018 180.622 44.0682C180.875 44.1346 180.969 44.0815 181.035 43.8956C181.089 43.723 181.195 43.6699 181.435 43.723C181.675 43.7628 181.768 43.723 181.768 43.5637C181.768 43.4309 181.888 43.3513 182.088 43.3513C182.328 43.3513 182.421 43.2451 182.528 42.9132C182.621 42.5945 182.714 42.5016 182.914 42.5281C183.128 42.5547 183.221 42.4352 183.381 41.9307C183.527 41.466 183.661 41.2802 183.861 41.2536C184.047 41.2271 184.18 41.0545 184.274 40.7226C184.38 40.3641 191.177 11.0765 191.697 8.72663C191.75 8.50093 191.71 8.43455 191.497 8.43455C191.244 8.43455 191.23 8.38144 191.297 7.93005C191.35 7.66452 191.417 7.33261 191.457 7.19985C191.497 7.02726 191.43 6.93432 191.23 6.88122C190.977 6.81484 190.95 6.73518 191.017 6.29706C191.097 5.84566 191.07 5.77928 190.83 5.77928C190.63 5.77928 190.564 5.68635 190.564 5.44738C190.564 5.19512 190.497 5.11547 190.284 5.11547C190.071 5.11547 190.031 5.06236 190.097 4.86322C190.151 4.67735 190.097 4.58441 189.898 4.51803C189.751 4.4782 189.631 4.31889 189.631 4.18612C189.631 4.06664 189.511 3.9206 189.364 3.88077C189.205 3.84094 189.098 3.6949 189.098 3.53558C189.098 3.34972 189.018 3.25678 188.831 3.25678C188.658 3.25678 188.565 3.16385 188.565 3.01781C188.565 2.83194 188.365 2.69918 187.805 2.51331C187.352 2.36727 187.032 2.16812 186.992 2.03536C186.966 1.88932 186.712 1.74328 186.379 1.65035C184.98 1.29189 184.634 1.15912 184.634 0.999807C184.634 0.734281 183.781 0.548412 183.447 0.734281C183.234 0.840491 182.928 0.827215 182.195 0.667899C180.995 0.428925 180.835 0.415649 180.835 0.641347Z" fill="url(#paint2_linear_52_73)"/>
<path d="M3.70079 169.244C20.4886 161.904 38.184 162.291 54.6883 169.983C63.3237 174.008 70.9908 179.883 79.9613 183.241C100.172 190.806 123.685 190.035 141.911 177.821" stroke="url(#paint3_linear_52_73)" stroke-width="10.9206" stroke-miterlimit="1.5" stroke-linecap="round" stroke-linejoin="round"/>
</g>
<defs>
<linearGradient id="paint0_linear_52_73" x1="138.386" y1="192.702" x2="174.471" y2="48.2911" gradientUnits="userSpaceOnUse">
<stop offset="0.0533491" stop-color="#8E43AD"/>
<stop offset="0.197734" stop-color="#AA387D"/>
<stop offset="0.317228" stop-color="#D63251"/>
<stop offset="0.469244" stop-color="#F7352D"/>
<stop offset="0.714143" stop-color="#FA9B4F"/>
</linearGradient>
<linearGradient id="paint1_linear_52_73" x1="138.386" y1="192.702" x2="174.471" y2="48.2911" gradientUnits="userSpaceOnUse">
<stop offset="0.0533491" stop-color="#8E43AD"/>
<stop offset="0.197734" stop-color="#AA387D"/>
<stop offset="0.317228" stop-color="#D63251"/>
<stop offset="0.469244" stop-color="#F7352D"/>
<stop offset="0.714143" stop-color="#FA9B4F"/>
</linearGradient>
<linearGradient id="paint2_linear_52_73" x1="39.057" y1="-4.83098" x2="194.562" y2="153.116" gradientUnits="userSpaceOnUse">
<stop offset="0.0533491" stop-color="#8E43AD"/>
<stop offset="0.197734" stop-color="#AA387D"/>
<stop offset="0.317228" stop-color="#D63251"/>
<stop offset="0.469244" stop-color="#F7352D"/>
<stop offset="0.714143" stop-color="#FA9B4F"/>
</linearGradient>
<linearGradient id="paint3_linear_52_73" x1="2.94247" y1="170.838" x2="73.0392" y2="104.76" gradientUnits="userSpaceOnUse">
<stop offset="0.285857" stop-color="#FA9B4F"/>
<stop offset="0.530756" stop-color="#F7352D"/>
<stop offset="0.682772" stop-color="#D63251"/>
<stop offset="0.802266" stop-color="#AA387D"/>
<stop offset="0.946651" stop-color="#8E43AD"/>
</linearGradient>
<clipPath id="clip0_52_73">
<rect width="192" height="192" fill="white"/>
</clipPath>
</defs>
</svg>
