<svg width="247" height="247" viewBox="0 0 247 247" fill="none" xmlns="http://www.w3.org/2000/svg">
<g clip-path="url(#clip0_2421_1600)">
<path d="M105.561 44.9173C110.719 43.9745 115.665 47.3915 116.608 52.5495L122.816 86.5112C123.759 91.6692 120.342 96.6149 115.184 97.5578L60.8448 107.491C55.6868 108.434 50.7411 105.017 49.7982 99.8587L43.59 65.897C42.6472 60.739 46.0642 55.7933 51.2222 54.8504L105.561 44.9173ZM52.1534 59.9447C49.8089 60.3733 48.2558 62.6213 48.6843 64.9658L54.8925 98.9274C55.321 101.272 57.569 102.825 59.9136 102.397L114.252 92.4635C116.597 92.0349 118.15 89.787 117.721 87.4424L111.513 53.4807C111.085 51.1362 108.837 49.5831 106.492 50.0116L52.1534 59.9447ZM96.4786 61.0915C97.4836 60.0741 99.1234 60.0644 100.141 61.0693C101.158 62.0743 101.168 63.7132 100.163 64.7305L85.3554 79.7215C84.5906 80.4957 83.4232 80.709 82.434 80.2555L63.2798 71.4727C61.9803 70.8766 61.4095 69.3402 62.0051 68.0405C62.6012 66.7406 64.1384 66.1697 65.4383 66.7656L82.9444 74.7925L96.4786 61.0915Z" fill="#FFF6F1"/>
</g>
<g clip-path="url(#clip1_2421_1600)">
<path fill-rule="evenodd" clip-rule="evenodd" d="M165.778 226.688L181.698 122.809C181.698 122.809 174.861 110.914 179.801 96.9518C185.824 79.9322 205.487 70.8439 221.556 76.0559C237.625 81.2692 250.523 97.477 244.479 117.932C240.716 130.665 231.286 136.008 231.286 136.008L192.883 234.075L181.882 231.257L177.31 229.908L165.778 226.688ZM178.622 218.125L185.284 219.78L216.144 142.619C216.144 142.619 208.198 142.776 202.389 141.06C196.578 139.345 191.48 135.338 191.48 135.338L178.622 218.125ZM189.773 105.671C189.773 105.671 187.734 125.249 206.057 129.708C224.381 134.168 232.355 116.933 232.355 116.933C232.355 116.933 218.643 121.11 208.319 118.379C197.994 115.65 189.773 105.671 189.773 105.671ZM191.871 99.932C191.871 99.932 200.786 108.94 211.376 111.819C221.967 114.699 234.089 111.41 234.089 111.41C234.089 111.41 235.304 91.1239 216.719 87.0077C198.132 82.8919 191.871 99.932 191.871 99.932Z" fill="#FFF6F1"/>
<path d="M232.637 0.824974C232.637 1.01285 232.431 1.02993 231.591 0.893292C230.717 0.756656 230.494 0.756656 230.34 0.96161C230.203 1.14948 229.98 1.18364 229.466 1.09825C228.985 1.01285 228.728 1.02993 228.608 1.20072C228.471 1.35444 228.18 1.3886 227.614 1.33736C226.98 1.26904 226.808 1.28612 226.808 1.49107C226.808 1.7131 226.654 1.7131 225.848 1.57647C225.145 1.45691 224.785 1.47399 224.494 1.62771C224.254 1.76434 223.859 1.7985 223.482 1.73018C223.036 1.64479 222.848 1.67895 222.745 1.8839C222.608 2.10593 222.454 2.12301 221.854 1.98638C221.253 1.86682 221.116 1.8839 221.031 2.08885C220.945 2.29381 220.756 2.32796 220.105 2.24257C219.402 2.14009 219.265 2.17425 219.265 2.39628C219.265 2.58416 219.162 2.65247 218.973 2.58416C218.802 2.53292 218.305 2.44752 217.876 2.39628C217.259 2.31088 217.036 2.32796 216.933 2.53292C216.813 2.73787 216.625 2.77203 216.042 2.65247C215.459 2.55 215.27 2.58416 215.202 2.75495C215.133 2.94282 214.91 2.97698 214.276 2.89159C213.556 2.78911 213.436 2.82327 213.436 3.06238C213.436 3.26733 213.333 3.33565 213.144 3.26733C212.081 2.97698 211.721 2.97698 211.721 3.25025C211.721 3.48937 211.584 3.50645 210.916 3.42105C210.453 3.35273 209.956 3.26733 209.784 3.2161C209.613 3.18194 209.441 3.25025 209.39 3.40397C209.321 3.60892 209.115 3.64308 208.447 3.55768C207.761 3.47229 207.607 3.50645 207.607 3.72848C207.607 3.93343 207.487 3.95051 206.972 3.83095C206.064 3.626 205.892 3.64308 205.892 3.93343C205.892 4.12131 205.721 4.15546 205.035 4.07007C204.349 3.98467 204.178 4.01883 204.178 4.22378C204.178 4.42873 203.989 4.44581 203.046 4.2921C202.155 4.17254 201.898 4.17254 201.778 4.36042C201.675 4.51413 201.435 4.54829 200.955 4.46289C200.423 4.3775 200.218 4.42873 200.098 4.61661C199.978 4.83864 199.823 4.85572 199.223 4.71909C198.623 4.59953 198.486 4.61661 198.4 4.82156C198.315 5.02652 198.126 5.06067 197.475 4.97528C196.772 4.8728 196.635 4.90696 196.635 5.12899C196.635 5.31687 196.532 5.38518 196.343 5.31687C196.172 5.26563 195.674 5.18023 195.246 5.12899C194.629 5.04359 194.406 5.06067 194.303 5.26563C194.183 5.47058 193.994 5.50474 193.411 5.38518C192.829 5.28271 192.64 5.31687 192.571 5.48766C192.503 5.67553 192.28 5.70969 191.646 5.6243C190.926 5.52182 190.806 5.55598 190.806 5.79509C190.806 6.00004 190.703 6.06836 190.514 6.00004C189.451 5.70969 189.091 5.70969 189.091 5.98296C189.091 6.22208 188.954 6.23916 188.285 6.15376C187.822 6.08544 187.325 6.00004 187.154 5.9488C186.982 5.91465 186.811 5.98296 186.76 6.13668C186.691 6.34163 186.485 6.37579 185.817 6.29039C185.131 6.205 184.977 6.23916 184.977 6.44411C184.977 6.66614 184.839 6.68322 184.256 6.56366C183.262 6.37579 183.262 6.37579 183.262 6.66614C183.262 6.85401 183.091 6.88817 182.405 6.80278C181.788 6.73446 181.548 6.76862 181.548 6.92233C181.548 7.07605 181.256 7.09313 180.348 7.00773C179.439 6.92233 179.148 6.93941 179.148 7.09313C179.148 7.24684 178.925 7.281 178.29 7.1956C177.57 7.09313 177.433 7.12729 177.433 7.34932C177.433 7.62259 177.073 7.62259 176.027 7.33224C175.822 7.26392 175.719 7.33224 175.719 7.53719C175.719 7.7763 175.599 7.81046 174.862 7.70799C174.141 7.60551 174.004 7.63967 174.004 7.87878C174.004 8.0325 173.901 8.11789 173.781 8.06665C173.644 8.01542 173.113 7.93002 172.581 7.8617C171.741 7.75922 171.604 7.7763 171.604 8.01542C171.604 8.22037 171.501 8.27161 171.176 8.20329C170.936 8.15205 170.558 8.08373 170.318 8.0325C170.01 7.96418 169.89 8.01542 169.89 8.20329C169.89 8.42532 169.735 8.45948 169.033 8.35701C168.295 8.25453 168.175 8.28869 168.175 8.5278C168.175 8.73275 168.072 8.80107 167.884 8.73275C166.821 8.4424 166.461 8.4424 166.461 8.71567C166.461 8.93771 166.324 8.97186 165.604 8.86939C164.918 8.78399 164.746 8.80107 164.746 9.00602C164.746 9.21098 164.592 9.22806 163.975 9.14266C163.375 9.05726 163.152 9.07434 163.049 9.27929C162.946 9.46717 162.723 9.51841 162.209 9.45009C161.626 9.36469 161.506 9.39885 161.438 9.67212C161.369 9.89415 161.266 9.96247 161.043 9.87707C160.872 9.80876 160.666 9.87707 160.529 10.0649C160.409 10.2357 160.169 10.3382 159.998 10.3041C159.775 10.2699 159.638 10.3895 159.518 10.7652C159.38 11.141 159.243 11.2605 158.969 11.2434C158.746 11.2093 158.575 11.3288 158.523 11.5338C158.472 11.7387 158.283 11.8754 158.077 11.8754C157.82 11.8754 157.666 12.0803 157.426 12.7464C157.186 13.3954 157.049 13.5833 156.826 13.515C156.586 13.4638 156.466 13.6346 156.26 14.3177C156.123 14.813 149.831 41.8669 142.288 74.4544C134.744 107.042 128.521 133.754 128.487 133.823C128.315 134.096 127.698 133.788 127.801 133.498C127.87 133.276 127.715 133.156 127.115 133.003C126.532 132.849 126.344 132.712 126.378 132.507C126.412 132.302 126.241 132.183 125.778 132.063C125.332 131.961 125.075 131.773 124.972 131.517C124.869 131.261 124.612 131.073 124.166 130.97C123.721 130.868 123.532 130.731 123.566 130.543C123.601 130.355 123.309 130.202 122.486 129.963C121.715 129.741 121.372 129.553 121.372 129.365C121.372 129.177 121.046 129.006 120.258 128.784C119.417 128.562 119.143 128.425 119.177 128.22C119.212 128.016 118.869 127.845 117.72 127.537C116.606 127.23 116.229 127.059 116.263 126.854C116.297 126.683 116.109 126.547 115.714 126.444C113.074 125.778 112.457 125.573 112.457 125.351C112.457 125.061 111.685 124.839 106.628 123.677C101.022 122.379 100.508 122.294 100.216 122.533C100.045 122.687 99.5475 122.636 98.1416 122.362C96.6672 122.089 96.2558 122.055 96.1529 122.226C96.0501 122.413 95.7586 122.413 94.6957 122.226C93.9756 122.106 93.2727 121.969 93.1356 121.918C93.0155 121.867 92.9127 121.952 92.9127 122.106C92.9127 122.431 92.9127 122.431 91.6269 122.191C90.7868 122.038 90.5811 122.055 90.4268 122.26C90.2725 122.465 90.0839 122.482 89.3467 122.345C88.6609 122.209 88.3352 122.209 88.0266 122.379C87.7866 122.516 87.3923 122.55 87.0151 122.482C86.5694 122.396 86.3808 122.431 86.2779 122.636C86.1408 122.858 85.9865 122.875 85.4036 122.755C84.7864 122.618 84.6835 122.636 84.5978 122.892C84.5121 123.131 84.3921 123.165 83.7749 123.045C83.2263 122.96 83.0205 122.977 82.9177 123.165C82.8148 123.336 82.5748 123.37 82.0262 123.319C81.3918 123.233 81.2547 123.267 81.2547 123.489C81.2547 123.712 81.1518 123.746 80.7404 123.66C80.3289 123.575 80.226 123.609 80.226 123.848C80.226 124.087 80.106 124.121 79.4546 124.036C78.8374 123.951 78.6488 123.985 78.5631 124.19C78.4945 124.361 78.3402 124.429 78.0659 124.361C77.7916 124.292 77.6716 124.343 77.6201 124.548C77.5687 124.788 77.4144 124.839 76.8487 124.805C76.4715 124.77 76.0943 124.822 76.0257 124.924C75.9743 125.027 75.7343 125.112 75.4943 125.112C75.2371 125.112 75.0828 125.215 75.0828 125.385C75.0828 125.59 74.9799 125.641 74.6714 125.556C74.3456 125.471 74.2256 125.539 74.1399 125.778C74.0713 126 73.9342 126.068 73.6256 126C73.2998 125.949 73.197 126 73.197 126.222C73.197 126.444 73.0941 126.495 72.7684 126.444C72.4769 126.376 72.3226 126.444 72.254 126.649C72.1855 126.854 72.0312 126.922 71.7397 126.854C71.4311 126.803 71.3111 126.854 71.3111 127.059C71.3111 127.23 71.1568 127.332 70.8825 127.332C70.6082 127.332 70.4539 127.435 70.4539 127.606C70.4539 127.811 70.351 127.862 70.0424 127.776C69.7167 127.691 69.5967 127.759 69.511 127.998C69.4424 128.22 69.3052 128.289 69.0824 128.238C68.8766 128.186 68.7052 128.255 68.6366 128.425C68.5852 128.579 68.3452 128.699 68.1223 128.699C67.8651 128.699 67.7108 128.801 67.7108 128.972C67.7108 129.177 67.5908 129.228 67.2994 129.177C66.9908 129.109 66.8536 129.177 66.8022 129.416C66.7508 129.587 66.5622 129.723 66.3393 129.723C66.0822 129.723 65.9107 129.877 65.7736 130.236C65.6193 130.629 65.4993 130.714 65.2078 130.646C64.9335 130.577 64.8135 130.646 64.7449 130.902C64.6935 131.141 64.5563 131.209 64.3163 131.141C64.042 131.073 63.9391 131.175 63.7848 131.653C63.6134 132.132 63.5105 132.234 63.2362 132.166C62.9791 132.098 62.8591 132.166 62.7905 132.439C62.7219 132.695 62.5848 132.798 62.3447 132.764C62.0704 132.729 61.9504 132.849 61.8133 133.276C61.6761 133.754 61.5904 133.823 61.2647 133.754C60.9218 133.669 60.8532 133.737 60.7503 134.267C60.6475 134.779 60.5789 134.864 60.2532 134.813C59.9274 134.745 59.8246 134.83 59.6703 135.377C59.516 135.872 59.4131 135.992 59.1559 135.923C58.8988 135.855 58.7788 135.975 58.6245 136.47C58.4702 136.948 58.3502 137.085 58.093 137.016C57.8358 136.948 57.7158 137.102 57.493 137.853C57.2529 138.588 57.1329 138.758 56.8415 138.724C56.55 138.69 56.4472 138.861 56.2586 139.578C56.0529 140.313 55.95 140.466 55.6585 140.432C55.3671 140.398 55.2471 140.586 54.9728 141.542C54.7156 142.448 54.5613 142.704 54.2699 142.738C53.9784 142.772 53.8413 143.063 53.4984 144.292C53.1555 145.539 53.0355 145.795 52.7955 145.727C52.4354 145.642 52.1783 146.478 50.9953 151.705C50.1381 155.531 50.121 155.684 50.481 155.684C50.7896 155.684 50.7896 155.975 50.481 157.392C50.1553 158.844 50.1724 159.1 50.4982 159.1C50.7896 159.1 50.7896 159.561 50.4639 161.081C50.3782 161.525 50.4124 161.645 50.7039 161.73C50.9953 161.833 51.0125 161.918 50.8925 162.653C50.7039 163.575 50.7896 163.882 51.1668 163.882C51.3554 163.882 51.4239 163.985 51.3554 164.173C51.3039 164.343 51.2182 164.753 51.1668 165.112C51.0639 165.624 51.0982 165.744 51.3897 165.829C51.6811 165.932 51.7154 166.051 51.6468 166.615C51.5611 167.179 51.5954 167.298 51.8525 167.298C52.0926 167.298 52.1269 167.418 52.0754 167.964C52.024 168.528 52.0754 168.665 52.3326 168.733C52.6069 168.801 52.6583 168.938 52.5897 169.45C52.5212 169.963 52.5726 170.099 52.8469 170.168C53.1212 170.236 53.1555 170.355 53.0869 170.902C53.0183 171.483 53.0526 171.568 53.3269 171.568C53.567 171.568 53.6527 171.688 53.6527 171.995C53.6527 172.268 53.7555 172.422 53.9098 172.422C54.0984 172.422 54.167 172.61 54.167 173.088C54.167 173.601 54.2356 173.771 54.4927 173.84C54.7328 173.891 54.8013 174.028 54.7328 174.284C54.6642 174.574 54.7156 174.642 55.0242 174.642C55.3671 174.642 55.4014 174.711 55.3328 175.326C55.2814 175.889 55.3328 176.009 55.5728 176.009C55.7785 176.009 55.8814 176.145 55.8814 176.419C55.8814 176.692 56.0014 176.863 56.2414 176.914C56.4986 176.982 56.5843 177.102 56.4986 177.29C56.43 177.495 56.4986 177.614 56.7386 177.665C56.9272 177.717 57.0815 177.905 57.0815 178.092C57.0815 178.297 57.2358 178.468 57.4415 178.519C57.6815 178.588 57.7673 178.724 57.7158 178.929C57.6644 179.134 57.7501 179.254 58.0244 179.322C58.3159 179.39 58.4016 179.51 58.333 179.749C58.2816 179.954 58.3673 180.091 58.6073 180.159C58.8302 180.21 58.9674 180.381 58.9674 180.603C58.9674 180.859 59.0702 180.962 59.3274 180.962C59.6017 180.962 59.6703 181.047 59.6017 181.303C59.5331 181.56 59.6188 181.679 59.9274 181.747C60.236 181.833 60.3217 181.935 60.2532 182.157C60.1846 182.362 60.2703 182.482 60.5103 182.55C60.7161 182.601 60.8532 182.772 60.8532 182.994C60.8532 183.233 60.9561 183.353 61.1961 183.353C61.419 183.353 61.539 183.472 61.539 183.677C61.539 183.865 61.6933 184.07 61.8819 184.121C62.0704 184.173 62.2247 184.361 62.2247 184.531C62.2247 184.736 62.4476 184.907 62.9105 185.044C63.4763 185.215 63.5963 185.317 63.5105 185.573C63.442 185.812 63.5105 185.898 63.802 185.949C64.0592 185.983 64.1963 186.12 64.1963 186.325C64.1963 186.564 64.3849 186.7 64.8821 186.854C65.3621 186.991 65.5507 187.127 65.5164 187.332C65.4821 187.52 65.6193 187.657 65.9107 187.725C66.2193 187.794 66.3222 187.913 66.2536 188.118C66.185 188.34 66.3393 188.46 66.9222 188.613C67.5394 188.767 67.6594 188.87 67.5908 189.126C67.5223 189.382 67.6594 189.484 68.2595 189.604C68.8081 189.724 68.9967 189.843 68.9795 190.065C68.9624 190.287 69.151 190.424 69.6996 190.56C70.231 190.714 70.4539 190.851 70.4539 191.073C70.4539 191.261 70.6768 191.431 71.1397 191.568C71.5683 191.705 71.8254 191.876 71.8254 192.046C71.8254 192.234 72.1683 192.422 72.9398 192.644C73.7627 192.883 74.0542 193.037 74.0542 193.259C74.0542 193.481 74.3456 193.635 75.1514 193.84C75.9229 194.062 76.2315 194.215 76.2143 194.403C76.1972 194.591 76.4029 194.728 76.7972 194.83C78.7517 195.326 79.1803 195.496 79.0945 195.735C78.9917 195.958 79.7974 196.282 81.3404 196.589C82.4719 196.829 82.9862 197.051 82.9177 197.273C82.7977 197.529 83.5349 197.734 89.2438 199.049C94.85 200.313 94.9871 200.347 95.1586 200.057C95.2786 199.852 96.4615 200.005 98.8617 200.552C99.1531 200.62 99.256 200.569 99.256 200.347C99.256 200.176 99.3417 200.091 99.4789 200.142C99.5989 200.193 100.302 200.33 101.039 200.449C102.136 200.62 102.393 200.62 102.513 200.432C102.651 200.227 103.388 200.262 104.536 200.552C104.811 200.62 104.914 200.569 104.914 200.347C104.914 200.125 105.016 200.074 105.342 200.159C106.508 200.449 107.262 200.466 107.365 200.21C107.451 200.005 107.588 199.988 108.188 200.108C108.788 200.244 108.942 200.227 109.062 200.022C109.182 199.817 109.388 199.783 109.971 199.869C110.571 199.937 110.76 199.903 110.845 199.698C110.897 199.544 111.034 199.459 111.137 199.493C111.257 199.527 111.6 199.595 111.908 199.647C112.337 199.715 112.457 199.681 112.457 199.459C112.457 199.237 112.594 199.203 113.314 199.288C114.017 199.373 114.171 199.339 114.171 199.117C114.171 198.929 114.291 198.878 114.617 198.946C114.909 198.998 115.097 198.946 115.149 198.776C115.234 198.571 115.423 198.537 116.006 198.622C116.589 198.69 116.743 198.673 116.743 198.468C116.743 198.297 116.914 198.212 117.257 198.212C117.583 198.212 117.772 198.127 117.772 197.973C117.772 197.785 117.943 197.751 118.475 197.819C119.006 197.905 119.229 197.853 119.332 197.665C119.417 197.495 119.64 197.426 119.915 197.495C120.24 197.546 120.343 197.495 120.343 197.273C120.343 197.051 120.446 196.999 120.755 197.051C121.063 197.119 121.2 197.051 121.252 196.811C121.32 196.555 121.44 196.521 121.783 196.607C122.126 196.692 122.229 196.641 122.229 196.436C122.229 196.265 122.383 196.162 122.658 196.162C122.932 196.162 123.086 196.06 123.086 195.889C123.086 195.684 123.189 195.633 123.515 195.718C123.824 195.804 123.978 195.753 124.046 195.565C124.115 195.428 124.338 195.309 124.561 195.309C124.818 195.309 124.972 195.206 124.972 195.035C124.972 194.83 125.092 194.779 125.384 194.83C125.692 194.899 125.829 194.83 125.898 194.591C125.949 194.352 126.069 194.284 126.309 194.369C126.567 194.437 126.687 194.369 126.755 194.147C126.841 193.908 126.978 193.84 127.287 193.908C127.595 193.959 127.715 193.908 127.715 193.703C127.715 193.532 127.87 193.43 128.144 193.43C128.418 193.43 128.572 193.327 128.572 193.174C128.572 193.02 128.727 192.917 128.984 192.917C129.275 192.917 129.447 192.764 129.601 192.388C129.773 191.995 129.91 191.893 130.167 191.961C130.39 192.012 130.527 191.944 130.578 191.705C130.647 191.449 130.767 191.38 131.058 191.449C131.367 191.534 131.47 191.449 131.607 190.987C131.727 190.578 131.847 190.458 132.138 190.475C132.361 190.509 132.533 190.39 132.601 190.168C132.687 189.928 132.824 189.843 133.047 189.894C133.287 189.963 133.407 189.843 133.579 189.399C133.733 188.955 133.87 188.818 134.127 188.852C134.384 188.887 134.504 188.767 134.624 188.34C134.744 187.93 134.899 187.794 135.173 187.794C135.447 187.794 135.602 187.657 135.722 187.23C135.842 186.82 135.962 186.7 136.219 186.735C136.493 186.769 136.613 186.649 136.733 186.222C136.853 185.847 137.024 185.642 137.264 185.607C137.539 185.573 137.71 185.334 137.916 184.702C138.156 184.002 138.276 183.848 138.533 183.917C138.79 183.985 138.91 183.831 139.15 183.063C139.39 182.328 139.51 182.157 139.75 182.209C140.008 182.277 140.128 182.072 140.419 181.047C140.728 180.022 140.83 179.817 141.105 179.886C141.413 179.971 141.568 179.578 142.082 177.546C142.185 177.136 142.339 176.931 142.579 176.897C142.853 176.863 142.991 176.624 143.196 175.872C143.488 174.882 168.861 65.4365 168.861 65.2315C168.861 65.1803 169.015 65.1632 169.221 65.2145C169.427 65.2657 169.598 65.2145 169.667 65.0607C169.735 64.8729 169.941 64.8387 170.593 64.9241C171.313 65.0266 171.433 64.9924 171.433 64.7533C171.433 64.5484 171.536 64.48 171.741 64.5484C172.787 64.8387 173.147 64.8387 173.147 64.5654C173.147 64.3434 173.284 64.3092 174.004 64.4117C174.69 64.4971 174.862 64.48 174.862 64.2751C174.862 64.0701 175.05 64.0531 175.993 64.2068C176.885 64.3434 177.142 64.3263 177.262 64.1384C177.365 63.9847 177.622 63.9506 178.187 64.0189C178.805 64.1043 178.976 64.0872 178.976 63.8823C178.976 63.6944 179.148 63.6602 179.833 63.7456C180.468 63.8139 180.691 63.7798 180.691 63.6261C180.691 63.4724 180.913 63.4382 181.548 63.5236C182.268 63.6261 182.405 63.5919 182.405 63.3699C182.405 63.182 182.508 63.1137 182.714 63.182C182.868 63.2162 183.416 63.3186 183.914 63.3699C184.685 63.4724 184.805 63.4553 184.805 63.1991C184.805 62.9258 185.148 62.9258 186.228 63.2162C186.417 63.2845 186.52 63.2162 186.52 63.0112C186.52 62.7721 186.64 62.7379 187.377 62.8404C188.08 62.9429 188.234 62.9087 188.234 62.6867C188.234 62.4988 188.354 62.4476 188.663 62.5159C188.903 62.5671 189.28 62.6355 189.52 62.6867C189.845 62.755 189.948 62.7038 189.948 62.4988C189.948 62.2597 190.085 62.2426 190.926 62.3451C191.457 62.4134 191.988 62.4988 192.126 62.5501C192.246 62.6013 192.349 62.5159 192.349 62.3622C192.349 62.1231 192.486 62.0889 193.189 62.1914C193.84 62.2768 194.029 62.2426 194.114 62.0377C194.2 61.8327 194.337 61.8156 194.869 61.9352C195.743 62.1402 195.777 62.1231 195.777 61.8156C195.777 61.5936 195.914 61.5765 196.566 61.679C197.132 61.7644 197.389 61.7302 197.492 61.5765C197.612 61.3887 197.869 61.3887 198.76 61.5082C199.703 61.6619 199.892 61.6449 199.892 61.4399C199.892 61.2349 200.063 61.2008 200.749 61.2862C201.435 61.3716 201.606 61.3374 201.606 61.1495C201.606 60.8592 201.606 60.8592 202.601 61.0471C203.184 61.1666 203.321 61.1495 203.321 60.9275C203.321 60.7226 203.475 60.7055 204.161 60.7909C204.795 60.8763 205.018 60.8421 205.087 60.6713C205.155 60.4834 205.361 60.4664 206.012 60.5688C207.23 60.7738 207.435 60.7567 207.435 60.4493C207.435 60.1931 207.812 60.1931 208.858 60.4834C209.047 60.5518 209.15 60.4834 209.15 60.2956C209.15 60.0565 209.27 60.0223 210.007 60.1248C210.727 60.2273 210.864 60.1931 210.864 59.9711C210.864 59.7661 210.984 59.7149 211.293 59.7832C211.533 59.8344 211.91 59.9027 212.15 59.954C212.459 60.0223 212.579 59.9711 212.579 59.7832C212.579 59.5441 212.733 59.527 213.487 59.6124C213.967 59.6636 214.516 59.749 214.687 59.8003C214.876 59.8686 214.979 59.8003 214.979 59.6124C214.979 59.3904 215.116 59.3562 215.819 59.4587C216.47 59.5441 216.659 59.5099 216.745 59.305C216.83 59.1 216.967 59.0829 217.499 59.2025C218.373 59.4074 218.408 59.3904 218.408 59.0829C218.408 58.8609 218.545 58.8438 219.196 58.9463C219.762 59.0317 220.019 58.9975 220.122 58.8438C220.242 58.6559 220.499 58.6559 221.391 58.7755C222.334 58.9292 222.522 58.9121 222.522 58.7072C222.522 58.5022 222.694 58.4681 223.379 58.5535C224.065 58.6389 224.237 58.6047 224.237 58.4168C224.237 58.1265 224.237 58.1265 225.231 58.3144C225.814 58.4339 225.951 58.4168 225.951 58.1948C225.951 57.9898 226.105 57.9728 226.74 58.0582C227.34 58.1265 227.597 58.0923 227.734 57.9215C227.871 57.7337 228.094 57.6995 228.66 57.802C229.243 57.9215 229.38 57.9044 229.38 57.6824C229.38 57.4945 229.551 57.4433 230.168 57.5287C230.734 57.5799 230.974 57.5458 231.043 57.375C231.094 57.2383 231.317 57.1359 231.54 57.1359C231.797 57.1359 231.951 57.0334 231.951 56.8626C231.951 56.6576 232.054 56.6064 232.363 56.6918C232.689 56.7772 232.809 56.7089 232.894 56.4698C232.963 56.2477 233.1 56.1794 233.409 56.2477C233.717 56.299 233.837 56.2477 233.837 56.0428C233.837 55.872 233.992 55.7695 234.249 55.7695C234.557 55.7695 234.677 55.6329 234.814 55.2059C234.934 54.796 235.054 54.6764 235.312 54.7106C235.586 54.7448 235.706 54.591 235.912 53.942C236.1 53.3442 236.272 53.1051 236.529 53.071C236.769 53.0368 236.94 52.8148 237.06 52.3878C237.197 51.9266 245.941 14.2494 246.61 11.2264C246.678 10.936 246.627 10.8506 246.352 10.8506C246.027 10.8506 246.01 10.7823 246.095 10.2016C246.164 9.86 246.25 9.43301 246.301 9.26222C246.352 9.04018 246.267 8.92063 246.01 8.85231C245.684 8.76691 245.65 8.66443 245.735 8.10081C245.838 7.52011 245.804 7.43472 245.495 7.43472C245.238 7.43472 245.152 7.31516 245.152 7.00773C245.152 6.68322 245.067 6.58074 244.792 6.58074C244.518 6.58074 244.467 6.51243 244.552 6.25623C244.621 6.01712 244.552 5.89757 244.295 5.81217C244.107 5.76093 243.952 5.55598 243.952 5.38518C243.952 5.23147 243.798 5.04359 243.609 4.99236C243.404 4.94112 243.267 4.75324 243.267 4.54829C243.267 4.30918 243.164 4.18962 242.924 4.18962C242.701 4.18962 242.581 4.07007 242.581 3.88219C242.581 3.64308 242.324 3.47229 241.604 3.23317C241.021 3.0453 240.609 2.78911 240.558 2.61831C240.523 2.43044 240.198 2.24257 239.769 2.12301C237.969 1.66187 237.523 1.49107 237.523 1.28612C237.523 0.94453 236.426 0.705418 235.997 0.94453C235.723 1.08117 235.329 1.06409 234.386 0.859133C232.843 0.551703 232.637 0.534624 232.637 0.824974Z" fill="#FFF6F1"/>
<path d="M4.76102 217.726C26.3579 208.283 49.1223 208.78 70.3543 218.676C81.4634 223.854 91.3268 231.412 102.867 235.732C128.867 245.464 159.116 244.471 182.563 228.759" stroke="#FFF6F1" stroke-width="9.52203" stroke-miterlimit="1.5" stroke-linecap="round" stroke-linejoin="round"/>
</g>
<defs>
<clipPath id="clip0_2421_1600">
<rect width="82.8588" height="82.8588" fill="white" transform="translate(35 42.8994) rotate(-10.3592)"/>
</clipPath>
<clipPath id="clip1_2421_1600">
<rect width="247" height="247" fill="white"/>
</clipPath>
</defs>
</svg>
