<svg width="198" height="189" viewBox="0 0 198 189" fill="none" xmlns="http://www.w3.org/2000/svg">
<path d="M197.497 94.5C197.497 146.413 155.413 188.497 103.5 188.497C51.5868 188.497 9.50287 146.413 9.50287 94.5C9.50287 42.5868 51.5868 0.502868 103.5 0.502868C155.413 0.502868 197.497 42.5868 197.497 94.5Z" fill="#A32CC4" stroke="#1D1D1D" stroke-width="1.00574"/>
<g opacity="0.3">
<path d="M103.5 134.015C95.6844 134.015 88.0445 131.698 81.5462 127.356C75.0479 123.014 69.9831 116.842 66.9922 109.622C64.0014 102.401 63.2188 94.4559 64.7436 86.7906C66.2683 79.1253 70.0318 72.0843 75.5581 66.558C81.0845 61.0316 88.1255 57.2681 95.7907 55.7434C103.456 54.2187 111.401 55.0013 118.622 57.9921C125.842 60.9829 132.014 66.0477 136.356 72.546C140.698 79.0443 143.015 86.6843 143.015 94.4997C143.004 104.976 138.837 115.021 131.429 122.429C124.021 129.837 113.977 134.004 103.5 134.015ZM103.5 55.1789C95.7229 55.1789 88.1206 57.485 81.6544 61.8057C75.1881 66.1263 70.1483 72.2674 67.1722 79.4523C64.1961 86.6372 63.4174 94.5433 64.9346 102.171C66.4518 109.798 70.1967 116.805 75.6958 122.304C81.195 127.803 88.2012 131.548 95.8287 133.065C103.456 134.582 111.362 133.803 118.547 130.827C125.732 127.851 131.873 122.811 136.194 116.345C140.514 109.879 142.821 102.277 142.821 94.4997C142.809 84.0747 138.663 74.0799 131.291 66.7082C123.92 59.3366 113.925 55.1903 103.5 55.1789Z" fill="#1D1D1D"/>
<path d="M103.5 138.199C94.856 138.199 86.4063 135.636 79.2192 130.833C72.0322 126.031 66.4307 119.205 63.123 111.219C59.8153 103.233 58.9501 94.4459 60.6367 85.9682C62.3233 77.4905 66.486 69.7033 72.5984 63.5915C78.7108 57.4796 86.4983 53.3176 94.9762 51.6318C103.454 49.9459 112.241 50.8119 120.227 54.1203C128.213 57.4287 135.038 63.0309 139.84 70.2183C144.641 77.4058 147.204 85.8557 147.203 94.4996C147.19 106.086 142.581 117.194 134.388 125.386C126.194 133.579 115.086 138.187 103.5 138.199ZM103.5 50.9912C94.8952 50.9935 86.4844 53.5472 79.331 58.3293C72.1777 63.1115 66.6029 69.9074 63.3116 77.8577C60.0204 85.8081 59.1604 94.5558 60.8405 102.995C62.5206 111.434 66.6653 119.185 72.7506 125.269C78.8358 131.352 86.5883 135.495 95.0278 137.173C103.467 138.851 112.215 137.988 120.164 134.695C128.114 131.402 134.908 125.825 139.688 118.67C144.468 111.516 147.02 103.104 147.02 94.4996C147.007 82.9625 142.417 71.902 134.258 63.7452C126.099 55.5883 115.037 51.0015 103.5 50.9912Z" fill="#1D1D1D"/>
<path d="M103.5 142.386C94.029 142.386 84.7709 139.576 76.8965 134.314C69.0221 129.052 62.8849 121.573 59.261 112.822C55.6372 104.072 54.6894 94.4437 56.5376 85.1548C58.3857 75.8659 62.9468 67.3337 69.6441 60.6369C76.3413 53.9402 84.874 49.3798 94.163 47.5324C103.452 45.685 113.08 46.6336 121.83 50.2581C130.58 53.8827 138.059 60.0205 143.321 67.8953C148.582 75.7702 151.391 85.0285 151.391 94.4995C151.376 107.196 146.326 119.369 137.348 128.346C128.369 137.324 116.197 142.373 103.5 142.386ZM103.5 46.8073C94.0675 46.8081 84.8471 49.6059 77.0047 54.8468C69.1623 60.0878 63.0501 67.5365 59.441 76.2512C55.8319 84.9659 54.888 94.555 56.7286 103.806C58.5693 113.057 63.1118 121.555 69.7818 128.224C76.4518 134.894 84.9498 139.436 94.201 141.276C103.452 143.115 113.041 142.171 121.756 138.561C130.47 134.951 137.918 128.838 143.159 120.995C148.399 113.153 151.196 103.932 151.196 94.4995C151.182 81.8545 146.152 69.7316 137.21 60.7906C128.268 51.8496 116.145 46.8208 103.5 46.8073Z" fill="#1D1D1D"/>
<path d="M103.5 146.574C91.4532 146.573 79.7796 142.395 70.4681 134.752C61.1565 127.109 54.7831 116.474 52.4337 104.659C50.0844 92.8433 51.9045 80.5789 57.5838 69.9551C63.2632 59.3312 72.4505 51.0052 83.5804 46.3958C94.7103 41.7863 107.094 41.1785 118.622 44.6759C130.15 48.1733 140.108 55.5596 146.801 65.5762C153.493 75.5928 156.505 87.62 155.324 99.6086C154.143 111.597 148.842 122.805 140.324 131.324C135.499 136.174 129.76 140.019 123.439 142.637C117.118 145.254 110.341 146.593 103.5 146.574ZM103.5 42.6201C74.8955 42.6201 51.6201 65.8916 51.6201 94.4999C51.6232 104.76 54.6685 114.789 60.371 123.318C66.0735 131.848 74.1771 138.495 83.6571 142.419C93.1372 146.344 103.568 147.369 113.631 145.365C123.693 143.362 132.936 138.419 140.19 131.163C147.444 123.907 152.383 114.663 154.384 104.6C156.384 94.5365 155.356 84.106 151.429 74.6272C147.502 65.1483 140.852 57.0467 132.321 51.3468C123.79 45.6468 113.76 42.6045 103.5 42.6045V42.6201Z" fill="#1D1D1D"/>
<path d="M103.5 150.758C90.4844 150.757 77.8718 146.243 67.8112 137.986C57.7505 129.728 50.8643 118.238 48.3257 105.473C45.7871 92.707 47.7532 79.4562 53.8891 67.9778C60.025 56.4994 69.9511 47.5037 81.9759 42.5232C94.0008 37.5428 107.381 36.8858 119.836 40.6643C132.291 44.4428 143.05 52.4229 150.281 63.2449C157.512 74.067 160.767 87.0615 159.491 100.014C158.215 112.967 152.488 125.077 143.284 134.28C138.072 139.521 131.872 143.676 125.043 146.504C118.214 149.333 110.891 150.779 103.5 150.758ZM103.5 38.4324C90.5273 38.4313 77.9557 42.9284 67.9272 51.1573C57.8986 59.3863 51.0337 70.838 48.502 83.5611C45.9704 96.2843 47.9287 109.492 54.0433 120.933C60.1579 132.374 70.0504 141.341 82.0353 146.306C94.0201 151.271 107.356 151.926 119.77 148.161C132.184 144.396 142.908 136.443 150.116 125.656C157.323 114.87 160.568 101.919 159.297 89.0087C158.025 76.0986 152.317 64.0287 143.144 54.8556C137.95 49.6331 131.772 45.4925 124.967 42.6734C118.162 39.8544 110.866 38.4129 103.5 38.4324Z" fill="#1D1D1D"/>
<path d="M103.5 154.945C89.5143 154.946 75.9612 150.097 65.1499 141.226C54.3386 132.354 46.9379 120.008 44.209 106.291C41.4801 92.5742 43.5918 78.3356 50.1842 66.0013C56.7766 53.667 67.4418 44.0001 80.3627 38.6478C93.2835 33.2956 107.66 32.589 121.044 36.6486C134.427 40.7083 145.989 49.2829 153.759 60.9114C161.529 72.5399 165.026 86.5028 163.656 100.421C162.285 114.339 156.13 127.351 146.241 137.241C140.641 142.871 133.98 147.335 126.644 150.374C119.307 153.413 111.441 154.967 103.5 154.945ZM103.5 34.2485C89.5594 34.2484 76.0502 39.0821 65.2742 47.9258C54.4981 56.7696 47.1219 69.0762 44.4023 82.7488C41.6828 96.4214 43.7882 110.614 50.3599 122.908C56.9315 135.202 67.5628 144.838 80.4421 150.172C93.3215 155.507 107.652 156.21 120.992 152.163C134.332 148.116 145.856 139.569 153.601 127.978C161.345 116.386 164.831 102.468 163.464 88.5952C162.097 74.722 155.962 61.7519 146.105 51.8949C140.523 46.2825 133.883 41.8329 126.57 38.8039C119.257 35.7749 111.415 34.2265 103.5 34.2485Z" fill="#1D1D1D"/>
<path d="M103.5 159.133C88.5477 159.133 74.0584 153.947 62.5005 144.462C50.9427 134.976 43.0315 121.776 40.1148 107.111C37.1981 92.4459 39.4564 77.2234 46.505 64.0369C53.5535 50.8504 64.9561 40.5157 78.7701 34.7937C92.584 29.0718 107.955 28.3165 122.263 32.6567C136.571 36.9969 148.932 46.1639 157.239 58.5959C165.547 71.0279 169.286 85.9557 167.822 100.836C166.357 115.716 159.777 129.628 149.205 140.201C143.217 146.223 136.095 150.996 128.249 154.246C120.404 157.496 111.992 159.157 103.5 159.133ZM103.5 30.061C88.5921 30.0638 74.1465 35.2354 62.6242 44.6946C51.1019 54.1539 43.2158 67.3156 40.3095 81.9372C37.4032 96.5589 39.6565 111.736 46.6855 124.883C53.7145 138.029 65.0843 148.332 78.8578 154.036C92.6313 159.739 107.956 160.491 122.222 156.162C136.487 151.834 148.811 142.693 157.092 130.297C165.374 117.902 169.102 103.018 167.64 88.182C166.178 73.346 159.618 59.4759 149.077 48.9345C143.105 42.9313 136.002 38.1721 128.179 34.9324C120.356 31.6928 111.967 30.037 103.5 30.061Z" fill="#1D1D1D"/>
<path d="M103.5 163.321C87.5757 163.322 72.1436 157.802 59.8331 147.701C47.5226 137.6 39.0956 123.543 35.9878 107.925C32.88 92.3066 35.2838 76.0941 42.7897 62.0498C50.2955 48.0054 62.4389 36.9981 77.1507 30.9035C91.8625 24.809 108.232 24.0041 123.471 28.6262C138.71 33.2483 151.874 43.0114 160.722 56.2517C169.569 69.4921 173.551 85.3906 171.991 101.238C170.43 117.086 163.422 131.902 152.162 143.162C145.787 149.573 138.203 154.656 129.85 158.116C121.498 161.576 112.541 163.345 103.5 163.321ZM103.5 25.8734C87.6229 25.8733 72.2369 31.3783 59.9637 41.4504C47.6904 51.5226 39.2893 65.5388 36.1916 81.1108C33.094 96.6827 35.4916 112.847 42.9758 126.849C50.4601 140.852 62.568 151.826 77.2364 157.902C91.9049 163.978 108.226 164.78 123.42 160.171C138.613 155.563 151.739 145.828 160.56 132.627C169.381 119.426 173.351 103.574 171.795 87.7738C170.239 71.9732 163.252 57.2009 152.026 45.974C145.668 39.5812 138.106 34.5129 129.776 31.0626C121.447 27.6123 112.516 25.8486 103.5 25.8734Z" fill="#1D1D1D"/>
<path d="M103.5 167.505C86.6087 167.505 70.2402 161.648 57.1831 150.933C44.1261 140.217 35.1885 125.306 31.8932 108.739C28.5979 92.1726 31.1488 74.976 39.1113 60.0794C47.0738 45.1828 59.9551 33.508 75.5605 27.0442C91.1659 20.5805 108.53 19.7277 124.693 24.6311C140.857 29.5346 154.821 39.8909 164.204 53.9356C173.588 67.9802 177.812 84.8441 176.156 101.654C174.5 118.463 167.067 134.179 155.122 146.122C148.359 152.923 140.314 158.314 131.453 161.984C122.592 165.655 113.091 167.531 103.5 167.505ZM103.5 21.6896C86.6549 21.6905 70.3313 27.532 57.3105 38.219C44.2897 48.9059 35.3773 63.777 32.0918 80.2985C28.8062 96.8199 31.3509 113.969 39.2922 128.825C47.2336 143.681 60.0802 155.323 75.6431 161.769C91.2061 168.214 108.523 169.064 124.642 164.174C140.761 159.283 154.686 148.955 164.044 134.948C173.402 120.942 177.614 104.124 175.963 87.3604C174.311 70.5966 166.898 54.9241 154.986 43.0134C148.24 36.2313 140.217 30.8546 131.379 27.1943C122.541 23.5341 113.065 21.6631 103.5 21.6896Z" fill="#1D1D1D"/>
<path d="M103.5 171.692C85.6408 171.689 68.3354 165.493 54.5325 154.16C40.7295 142.828 31.2831 127.059 27.8028 109.543C24.3225 92.0259 27.0237 73.8443 35.4461 58.0959C43.8684 42.3474 57.4909 30.0066 73.9923 23.1762C90.4936 16.3458 108.853 15.4484 125.942 20.6369C143.031 25.8255 157.792 36.7789 167.71 51.6309C177.628 66.4828 182.089 84.3143 180.334 102.087C178.579 119.86 170.715 136.474 158.083 149.099C150.931 156.286 142.424 161.984 133.054 165.862C123.685 169.741 113.64 171.722 103.5 171.692ZM103.5 17.5022C85.6872 17.5031 68.4259 23.6803 54.657 34.9813C40.8881 46.2822 31.4635 62.0077 27.9891 79.4783C24.5148 96.9489 27.2055 115.084 35.6029 130.793C44.0003 146.502 57.5849 158.814 74.0419 165.63C90.4989 172.446 108.81 173.345 125.856 168.174C142.901 163.003 157.627 152.081 167.523 137.27C177.419 122.46 181.873 104.676 180.127 86.9486C178.381 69.2216 170.542 52.6485 157.947 40.053C150.813 32.8808 142.328 27.1948 132.982 23.3239C123.636 19.453 113.616 17.4743 103.5 17.5022Z" fill="#1D1D1D"/>
</g>
<path d="M108.591 95.8634C109.352 93.0493 107.687 90.1512 104.873 89.3903C102.059 88.6294 99.1608 90.2939 98.3999 93.108C97.639 95.9221 99.3035 98.8202 102.118 99.5811C104.932 100.342 107.83 98.6775 108.591 95.8634Z" fill="#1D1D1D"/>
<g opacity="0.73">
<path opacity="0.4" d="M171.867 139.964C177.152 131.997 180.994 123.163 183.218 113.864L148.264 105.419L103.167 94.5117L130.824 131.756L152.273 160.61C159.965 154.931 166.597 147.942 171.867 139.964Z" fill="url(#paint0_linear_1219_199)"/>
<path opacity="0.4" d="M35.5688 49.7763C30.2841 57.7439 26.4406 66.578 24.2135 75.8759L59.1714 84.3212L104.269 95.2285L76.6113 57.984L55.1863 29.1147C47.4845 34.7964 40.8438 41.7905 35.5688 49.7763Z" fill="url(#paint1_linear_1219_199)"/>
</g>
<path d="M103.716 130.864C123.599 130.864 139.718 114.746 139.718 94.8624C139.718 74.9792 123.599 58.8606 103.716 58.8606C83.8326 58.8606 67.714 74.9792 67.714 94.8624C67.714 114.746 83.8326 130.864 103.716 130.864Z" fill="#FFF6F1"/>
<path opacity="0.4" d="M28.7712 127.424C29.9617 130.159 31.2985 132.827 32.7757 135.418L62.8136 118.247L103.716 94.874L58.7117 108.8L25.6626 119.041C26.5448 121.891 27.5826 124.689 28.7712 127.424Z" fill="url(#paint2_linear_1219_199)"/>
<path opacity="0.4" d="M178.665 62.3004C177.474 59.566 176.137 56.8977 174.66 54.3069L144.622 71.4781L103.72 94.8509L148.728 80.909L181.777 70.6717C180.891 67.8271 179.852 65.0326 178.665 62.3004Z" fill="url(#paint3_linear_1219_199)"/>
<circle cx="103.448" cy="94.4479" r="3.67979" fill="#1D1D1D"/>
<rect x="0.5" y="16.5" width="98" height="29" rx="3.5" fill="#FFF6F1"/>
<rect x="0.5" y="16.5" width="98" height="29" rx="3.5" stroke="#A32CC4"/>
<path d="M12.266 36L14.17 26.2H18.608C20.134 26.2 21.114 27.054 20.862 28.356C20.596 29.672 19.28 30.232 17.446 30.232L17.516 29.868C18.174 29.868 18.734 29.476 18.846 28.888C18.958 28.314 18.594 27.936 17.894 27.936H15.738L15.29 30.232H17.684C19.602 30.232 20.666 31.366 20.33 33.088C19.994 34.768 18.426 36 16.578 36H12.266ZM14.506 34.264H16.9C17.642 34.264 18.3 33.732 18.426 33.046C18.58 32.332 18.16 31.856 17.376 31.856H14.982L14.506 34.264ZM21.2484 36L23.1524 26.2H25.0564L23.5164 34.152H27.6884L27.3104 36H21.2484ZM28.3031 36L30.2071 26.2H32.1111L30.2071 36H28.3031ZM32.1176 36L34.0216 26.2H36.1916L38.6836 32.878L39.9716 26.2H41.8756L39.9716 36H37.8296L35.3376 29.294L34.0216 36H32.1176ZM41.8793 36L43.7833 26.2H47.5913C50.5593 26.2 52.3093 28.258 51.7633 31.1C51.2173 33.942 48.6553 36 45.6873 36H41.8793ZM44.1473 34.152H46.0513C47.9693 34.152 49.4953 32.906 49.8453 31.1C50.2093 29.294 49.1593 28.048 47.2413 28.048H45.3373L44.1473 34.152ZM57.7979 36L59.3659 27.964H56.6639L56.9999 26.2H64.2939L63.9579 27.964H61.2699L59.7019 36H57.7979ZM63.4672 36L65.3712 26.2H71.7132L71.3492 28.048H66.9252L66.5052 30.232H70.7892L70.4532 31.968H66.1552L65.7352 34.152H70.1732L69.8092 36H63.4672ZM74.3275 36.21C72.3815 36.21 70.9675 34.992 71.2475 33.55C71.5275 32.094 73.0955 31.282 74.8875 31.73C73.4735 31.296 72.0315 30.61 72.3675 28.86C72.6895 27.222 74.2715 25.99 76.1755 25.99C77.4635 25.99 78.7655 26.662 79.1995 27.656L77.4915 28.804C77.1555 28.202 76.5115 27.824 75.8255 27.824C75.0835 27.824 74.3835 28.216 74.2715 28.846C74.1035 29.686 74.9575 29.868 75.8535 30.148C77.6315 30.75 78.7095 31.604 78.4015 33.2C78.0655 34.922 76.4135 36.21 74.3275 36.21ZM73.2215 33.186C73.0815 33.886 73.7675 34.376 74.6915 34.376C75.6155 34.376 76.3715 33.9 76.5115 33.172C76.6655 32.416 75.9655 32.066 75.0975 31.786L74.9155 32.136C74.2155 32.01 73.3615 32.486 73.2215 33.186ZM80.8624 36L82.4304 27.964H79.7284L80.0644 26.2H87.3584L87.0224 27.964H84.3344L82.7664 36H80.8624Z" fill="#A32CC4"/>
<defs>
<linearGradient id="paint0_linear_1219_199" x1="182.042" y1="147.23" x2="121.367" y2="107.024" gradientUnits="userSpaceOnUse">
<stop stop-color="white"/>
<stop offset="0.19" stop-color="white" stop-opacity="0.74"/>
<stop offset="0.41" stop-color="white" stop-opacity="0.48"/>
<stop offset="0.61" stop-color="white" stop-opacity="0.27"/>
<stop offset="0.78" stop-color="white" stop-opacity="0.12"/>
<stop offset="0.91" stop-color="white" stop-opacity="0.03"/>
<stop offset="1" stop-color="white" stop-opacity="0"/>
</linearGradient>
<linearGradient id="paint1_linear_1219_199" x1="25.6999" y1="45.8652" x2="86.378" y2="86.0736" gradientUnits="userSpaceOnUse">
<stop stop-color="white"/>
<stop offset="0.19" stop-color="white" stop-opacity="0.74"/>
<stop offset="0.41" stop-color="white" stop-opacity="0.48"/>
<stop offset="0.61" stop-color="white" stop-opacity="0.27"/>
<stop offset="0.78" stop-color="white" stop-opacity="0.12"/>
<stop offset="0.91" stop-color="white" stop-opacity="0.03"/>
<stop offset="1" stop-color="white" stop-opacity="0"/>
</linearGradient>
<linearGradient id="paint2_linear_1219_199" x1="20.3528" y1="131.139" x2="86.8662" y2="102.246" gradientUnits="userSpaceOnUse">
<stop stop-color="white"/>
<stop offset="0.18" stop-color="white" stop-opacity="0.74"/>
<stop offset="0.39" stop-color="white" stop-opacity="0.48"/>
<stop offset="0.57" stop-color="white" stop-opacity="0.27"/>
<stop offset="0.73" stop-color="white" stop-opacity="0.12"/>
<stop offset="0.86" stop-color="white" stop-opacity="0.03"/>
<stop offset="0.94" stop-color="white" stop-opacity="0"/>
</linearGradient>
<linearGradient id="paint3_linear_1219_199" x1="187.136" y1="58.6062" x2="120.622" y2="87.4994" gradientUnits="userSpaceOnUse">
<stop stop-color="white"/>
<stop offset="0.18" stop-color="white" stop-opacity="0.74"/>
<stop offset="0.39" stop-color="white" stop-opacity="0.48"/>
<stop offset="0.57" stop-color="white" stop-opacity="0.27"/>
<stop offset="0.73" stop-color="white" stop-opacity="0.12"/>
<stop offset="0.86" stop-color="white" stop-opacity="0.03"/>
<stop offset="0.94" stop-color="white" stop-opacity="0"/>
</linearGradient>
</defs>
</svg>
