<svg width="968" height="968" viewBox="0 0 968 968" fill="none" xmlns="http://www.w3.org/2000/svg">
<path d="M966.624 484C966.624 750.546 750.546 966.624 484 966.624C217.454 966.624 1.37557 750.546 1.37557 484C1.37557 217.454 217.454 1.37557 484 1.37557C750.546 1.37557 966.624 217.454 966.624 484Z" fill="url(#paint0_linear_841_2117)" stroke="#1D1D1D" stroke-width="2.75114"/>
<g opacity="0.3">
<path d="M483.999 686.385C443.971 686.385 404.841 674.515 371.559 652.277C338.277 630.038 312.336 598.43 297.018 561.449C281.7 524.467 277.692 483.774 285.501 444.515C293.31 405.256 312.586 369.194 340.89 340.89C369.194 312.585 405.256 293.31 444.515 285.501C483.775 277.692 524.468 281.7 561.449 297.018C598.43 312.336 630.039 338.276 652.277 371.559C674.516 404.841 686.386 443.97 686.386 483.999C686.327 537.657 664.986 589.101 627.044 627.043C589.101 664.986 537.657 686.327 483.999 686.385ZM483.999 282.61C444.168 282.61 405.231 294.421 372.113 316.55C338.995 338.679 313.182 370.131 297.94 406.93C282.697 443.729 278.709 484.222 286.48 523.288C294.25 562.353 313.431 598.237 341.595 626.402C369.76 654.567 405.644 673.747 444.71 681.518C483.776 689.289 524.268 685.3 561.067 670.058C597.866 654.815 629.319 629.003 651.448 595.884C673.577 562.766 685.388 523.83 685.388 483.999C685.33 430.605 664.094 379.414 626.338 341.659C588.583 303.904 537.393 282.668 483.999 282.61Z" fill="#1D1D1D"/>
<path d="M483.999 707.813C439.728 707.813 396.451 694.685 359.641 670.089C322.831 645.493 294.142 610.533 277.201 569.632C260.26 528.73 255.829 483.724 264.467 440.303C273.105 396.883 294.425 357 325.731 325.697C357.037 294.394 396.922 273.077 440.343 264.443C483.764 255.808 528.77 260.244 569.67 277.188C610.57 294.133 645.527 322.825 670.12 359.637C694.713 396.449 707.837 439.727 707.833 483.999C707.765 543.34 684.159 600.231 642.197 642.19C600.234 684.149 543.341 707.75 483.999 707.813ZM483.999 261.162C439.929 261.174 396.851 274.253 360.214 298.746C323.576 323.238 295.024 358.045 278.167 398.764C261.311 439.483 256.906 484.286 265.511 527.508C274.116 570.731 295.344 610.431 326.511 641.589C357.677 672.747 397.383 693.965 440.608 702.558C483.832 711.151 528.634 706.735 569.349 689.867C610.063 672.999 644.862 644.438 669.345 607.794C693.828 571.15 706.896 528.069 706.896 483.999C706.827 424.909 683.319 368.261 641.531 326.484C599.743 284.707 543.088 261.215 483.999 261.162Z" fill="#1D1D1D"/>
<path d="M484 729.26C435.492 729.256 388.075 714.868 347.745 687.916C307.414 660.964 275.981 622.658 257.421 577.842C238.861 533.026 234.007 483.713 243.473 436.138C252.938 388.563 276.299 344.863 310.6 310.565C344.901 276.266 388.603 252.909 436.179 243.447C483.754 233.985 533.067 238.844 577.882 257.407C622.696 275.971 661 307.407 687.949 347.74C714.898 388.073 729.282 435.491 729.282 483.998C729.208 549.026 703.341 611.37 657.357 657.35C611.373 703.33 549.028 729.192 484 729.26ZM484 239.734C435.689 239.738 388.465 254.067 348.299 280.909C308.132 307.752 276.828 345.902 258.343 390.536C239.858 435.17 235.024 484.283 244.451 531.664C253.878 579.045 277.144 622.567 311.305 656.726C345.467 690.885 388.991 714.147 436.373 723.571C483.755 732.994 532.868 728.156 577.5 709.667C622.132 691.179 660.28 659.871 687.119 619.702C713.959 579.534 728.284 532.308 728.284 483.998C728.21 419.234 702.449 357.145 656.652 311.352C610.855 265.559 548.763 239.802 484 239.734Z" fill="#1D1D1D"/>
<path d="M484 750.709C422.3 750.704 362.512 729.305 314.821 690.16C267.13 651.014 234.487 596.544 222.455 536.03C210.422 475.515 219.744 412.7 248.832 358.288C277.92 303.876 324.975 261.233 381.978 237.625C438.982 214.017 502.408 210.903 561.45 228.816C620.492 246.729 671.496 284.559 705.773 335.861C740.049 387.163 755.478 448.763 749.429 510.165C743.38 571.567 716.228 628.972 672.6 672.6C647.887 697.44 618.494 717.133 586.122 730.541C553.749 743.948 519.039 750.803 484 750.709ZM484 218.287C337.497 218.287 218.287 337.477 218.287 483.999C218.303 536.549 233.9 587.914 263.107 631.599C292.313 675.285 333.817 709.33 382.371 729.429C430.925 749.527 484.349 754.778 535.886 744.516C587.424 734.255 634.762 708.942 671.915 671.778C709.067 634.615 734.366 587.269 744.612 535.728C754.858 484.187 749.592 430.765 729.478 382.218C709.365 333.67 675.308 292.176 631.613 262.982C587.919 233.789 536.549 218.207 484 218.207V218.287Z" fill="#1D1D1D"/>
<path d="M483.999 772.137C417.338 772.133 352.74 749.015 301.212 706.722C249.685 664.43 214.416 605.58 201.414 540.199C188.412 474.818 198.482 406.951 229.908 348.162C261.334 289.374 312.172 243.3 373.76 217.792C435.348 192.283 503.875 188.919 567.665 208.271C631.456 227.623 686.563 268.495 723.597 323.922C760.631 379.349 777.302 445.903 770.767 512.243C764.233 578.583 734.899 640.606 687.762 687.743C661.066 714.585 629.31 735.865 594.334 750.351C559.358 764.837 521.856 772.242 483.999 772.137ZM483.999 196.839C417.557 196.834 353.17 219.867 301.806 262.013C250.443 304.159 215.283 362.811 202.317 427.975C189.351 493.139 199.381 560.783 230.698 619.381C262.015 677.979 312.681 723.905 374.064 749.334C435.447 774.763 503.748 778.121 567.329 758.836C630.91 739.552 685.838 698.817 722.752 643.574C759.666 588.331 776.284 521.998 769.773 455.876C763.261 389.754 734.025 327.936 687.044 280.954C660.441 254.206 628.798 232.999 593.946 218.561C559.093 204.123 521.723 196.74 483.999 196.839Z" fill="#1D1D1D"/>
<path d="M483.999 793.584C412.369 793.587 342.954 768.754 287.582 723.315C232.21 677.876 194.306 614.643 180.329 544.39C166.353 474.137 177.168 401.212 210.932 338.039C244.697 274.867 299.321 225.356 365.497 197.943C431.674 170.53 505.308 166.912 573.854 187.704C642.399 208.496 701.615 252.413 741.41 311.97C781.206 371.528 799.119 443.042 792.098 514.326C785.077 585.611 753.555 652.256 702.905 702.905C674.225 731.742 640.11 754.605 602.535 770.17C564.959 785.735 524.67 793.693 483.999 793.584ZM483.999 175.411C412.6 175.411 343.41 200.167 288.219 245.462C233.027 290.757 195.248 353.788 181.319 423.815C167.391 493.842 178.174 566.532 211.832 629.499C245.49 692.467 299.94 741.815 365.904 769.137C431.869 796.459 505.266 800.063 573.589 779.335C641.913 758.608 700.936 714.831 740.601 655.464C780.266 596.097 798.119 524.813 791.118 453.758C784.117 382.704 752.695 316.275 702.207 265.791C673.618 237.045 639.612 214.256 602.156 198.742C564.701 183.229 524.54 175.298 483.999 175.411Z" fill="#1D1D1D"/>
<path d="M483.999 815.032C407.419 815.028 333.209 788.472 274.014 739.888C214.818 691.304 174.299 623.698 159.361 548.589C144.422 473.48 155.989 395.515 192.089 327.977C228.189 260.44 286.59 207.509 357.341 178.203C428.092 148.897 506.815 145.028 580.098 167.257C653.381 189.486 716.69 236.437 759.237 300.11C801.785 363.783 820.939 440.239 813.435 516.45C805.932 592.662 772.236 663.915 718.089 718.068C687.421 748.908 650.94 773.357 610.758 790.001C570.576 806.645 527.492 815.153 483.999 815.032ZM483.999 153.963C407.647 153.977 333.661 180.465 274.647 228.912C215.633 277.359 175.243 344.77 160.358 419.657C145.473 494.545 157.013 572.277 193.014 639.61C229.014 706.943 287.247 759.711 357.791 788.923C428.334 818.136 506.824 821.985 579.888 799.816C652.951 777.647 716.068 730.83 758.484 667.343C800.9 603.856 819.992 527.626 812.506 451.641C805.02 375.656 771.42 304.617 717.43 250.628C686.846 219.881 650.466 195.505 610.398 178.913C570.329 162.32 527.367 153.84 483.999 153.963Z" fill="#1D1D1D"/>
<path d="M483.999 836.48C402.44 836.488 323.401 808.215 260.351 756.48C197.3 704.745 154.139 632.748 138.222 552.757C122.305 472.766 134.617 389.731 173.06 317.8C211.502 245.869 273.697 189.493 349.046 158.278C424.396 127.064 508.238 122.942 586.286 146.615C664.333 170.288 731.758 220.291 777.071 288.104C822.384 355.917 842.782 437.345 834.788 518.511C826.794 599.677 790.903 675.561 733.232 733.231C700.58 766.067 661.739 792.099 618.958 809.822C576.177 827.544 530.306 836.605 483.999 836.48ZM483.999 132.516C402.682 132.515 323.879 160.71 261.02 212.296C198.16 263.883 155.132 335.669 139.266 415.424C123.401 495.179 135.681 577.968 174.013 649.684C212.345 721.4 274.358 777.606 349.485 808.726C424.613 839.845 508.206 843.953 586.022 820.348C663.838 796.744 731.063 746.888 776.241 679.275C821.419 611.662 841.756 530.477 833.786 449.55C825.816 368.624 790.033 292.965 732.533 235.465C699.973 202.723 661.24 176.764 618.579 159.093C575.918 141.422 530.175 132.388 483.999 132.516Z" fill="#1D1D1D"/>
<path d="M483.999 857.908C397.488 857.909 313.653 827.913 246.779 773.031C179.905 718.15 134.129 641.778 117.252 556.929C100.374 472.081 113.44 384.005 154.221 307.709C195.002 231.414 260.977 171.619 340.903 138.513C420.829 105.408 509.761 101.04 592.546 126.154C675.332 151.268 746.848 204.31 794.91 276.242C842.971 348.175 864.604 434.546 856.122 520.64C847.64 606.735 809.569 687.224 748.395 748.395C713.755 783.225 672.55 810.838 627.167 829.636C581.783 848.434 533.122 858.043 483.999 857.908ZM483.999 111.089C397.725 111.093 314.12 141.012 247.432 195.747C180.743 250.482 135.096 326.647 118.269 411.265C101.442 495.883 114.475 583.718 155.148 659.803C195.821 735.889 261.617 795.518 341.326 828.53C421.034 861.543 509.724 865.896 592.283 840.849C674.841 815.801 746.161 762.902 794.09 691.166C842.019 619.429 863.591 533.293 855.132 447.434C846.672 361.575 808.704 281.306 747.696 220.302C713.147 185.567 672.051 158.029 626.787 139.282C581.524 120.536 532.991 110.953 483.999 111.089Z" fill="#1D1D1D"/>
<path d="M484 879.356C392.531 879.338 303.898 847.604 233.203 789.562C162.509 731.519 114.127 650.76 96.302 561.044C78.477 471.329 92.3116 378.208 135.448 297.55C178.585 216.891 248.355 153.685 332.87 118.702C417.385 83.7184 511.416 79.1223 598.94 105.696C686.463 132.271 762.065 188.371 812.863 264.438C863.66 340.505 886.511 431.832 877.52 522.859C868.53 613.885 828.255 698.978 763.558 763.638C726.925 800.451 683.355 829.634 635.369 849.497C587.383 869.359 535.934 879.508 484 879.356ZM484 89.6412C392.768 89.6461 304.361 121.284 233.841 179.164C163.321 237.044 115.051 317.585 97.2564 407.064C79.4617 496.543 93.2429 589.424 136.252 669.882C179.261 750.339 248.837 813.395 333.125 848.305C417.412 883.216 511.197 887.821 598.5 861.336C685.802 834.851 761.221 778.914 811.905 703.058C862.589 627.201 885.403 536.116 876.46 445.324C867.517 354.532 827.37 269.65 762.86 205.14C726.324 168.406 682.865 139.284 634.999 119.458C587.132 99.633 535.809 89.4984 484 89.6412Z" fill="#1D1D1D"/>
</g>
<path d="M510.072 490.983C513.969 476.57 505.445 461.727 491.032 457.83C476.619 453.933 461.775 462.458 457.878 476.871C453.981 491.284 462.506 506.127 476.919 510.024C491.332 513.921 506.175 505.396 510.072 490.983Z" fill="#1D1D1D"/>
<g opacity="0.73">
<path opacity="0.4" d="M834.155 716.853C861.223 676.049 880.903 630.801 892.293 583.179L713.27 539.924L482.293 484.061L623.948 674.815L733.8 822.595C773.196 793.509 807.166 757.715 834.155 716.853Z" fill="url(#paint1_linear_841_2117)"/>
<path opacity="0.4" d="M136.077 254.939C109.011 295.747 89.3256 340.993 77.9189 388.613L256.962 431.868L487.939 487.732L346.285 296.977L236.552 149.117C197.106 178.217 163.094 214.038 136.077 254.939Z" fill="url(#paint2_linear_841_2117)"/>
</g>
<path d="M485.106 670.248C586.942 670.248 669.497 587.693 669.497 485.857C669.497 384.021 586.942 301.467 485.106 301.467C383.27 301.467 300.716 384.021 300.716 485.857C300.716 587.693 383.27 670.248 485.106 670.248Z" fill="#FFF6F1"/>
<path opacity="0.4" d="M101.262 652.63C107.359 666.634 114.206 680.301 121.772 693.57L275.616 605.624L485.106 485.916L254.608 557.242L85.3403 609.694C89.8589 624.286 95.174 638.619 101.262 652.63Z" fill="url(#paint3_linear_841_2117)"/>
<path opacity="0.4" d="M868.97 319.083C862.872 305.079 856.026 291.412 848.46 278.143L694.615 366.089L485.126 485.797L715.644 414.391L884.911 361.959C880.375 347.39 875.054 333.077 868.97 319.083Z" fill="url(#paint4_linear_841_2117)"/>
<circle cx="483.732" cy="483.733" r="18.8467" fill="#1D1D1D"/>
<defs>
<linearGradient id="paint0_linear_841_2117" x1="3.83636e-05" y1="1001.08" x2="968" y2="-6.25705e-05" gradientUnits="userSpaceOnUse">
<stop offset="0.0533491" stop-color="#8E43AD"/>
<stop offset="0.247559" stop-color="#AA387D"/>
<stop offset="0.496302" stop-color="#D63251"/>
<stop offset="0.750783" stop-color="#F7352D"/>
<stop offset="0.946432" stop-color="#FA9B4F"/>
</linearGradient>
<linearGradient id="paint1_linear_841_2117" x1="886.269" y1="754.067" x2="575.511" y2="548.143" gradientUnits="userSpaceOnUse">
<stop stop-color="white"/>
<stop offset="0.19" stop-color="white" stop-opacity="0.74"/>
<stop offset="0.41" stop-color="white" stop-opacity="0.48"/>
<stop offset="0.61" stop-color="white" stop-opacity="0.27"/>
<stop offset="0.78" stop-color="white" stop-opacity="0.12"/>
<stop offset="0.91" stop-color="white" stop-opacity="0.03"/>
<stop offset="1" stop-color="white" stop-opacity="0"/>
</linearGradient>
<linearGradient id="paint2_linear_841_2117" x1="85.532" y1="234.908" x2="396.307" y2="440.843" gradientUnits="userSpaceOnUse">
<stop stop-color="white"/>
<stop offset="0.19" stop-color="white" stop-opacity="0.74"/>
<stop offset="0.41" stop-color="white" stop-opacity="0.48"/>
<stop offset="0.61" stop-color="white" stop-opacity="0.27"/>
<stop offset="0.78" stop-color="white" stop-opacity="0.12"/>
<stop offset="0.91" stop-color="white" stop-opacity="0.03"/>
<stop offset="1" stop-color="white" stop-opacity="0"/>
</linearGradient>
<linearGradient id="paint3_linear_841_2117" x1="58.1451" y1="671.654" x2="398.806" y2="523.672" gradientUnits="userSpaceOnUse">
<stop stop-color="white"/>
<stop offset="0.18" stop-color="white" stop-opacity="0.74"/>
<stop offset="0.39" stop-color="white" stop-opacity="0.48"/>
<stop offset="0.57" stop-color="white" stop-opacity="0.27"/>
<stop offset="0.73" stop-color="white" stop-opacity="0.12"/>
<stop offset="0.86" stop-color="white" stop-opacity="0.03"/>
<stop offset="0.94" stop-color="white" stop-opacity="0"/>
</linearGradient>
<linearGradient id="paint4_linear_841_2117" x1="912.356" y1="300.163" x2="571.694" y2="448.145" gradientUnits="userSpaceOnUse">
<stop stop-color="white"/>
<stop offset="0.18" stop-color="white" stop-opacity="0.74"/>
<stop offset="0.39" stop-color="white" stop-opacity="0.48"/>
<stop offset="0.57" stop-color="white" stop-opacity="0.27"/>
<stop offset="0.73" stop-color="white" stop-opacity="0.12"/>
<stop offset="0.86" stop-color="white" stop-opacity="0.03"/>
<stop offset="0.94" stop-color="white" stop-opacity="0"/>
</linearGradient>
</defs>
</svg>
