<svg width="652" height="1055" viewBox="0 0 652 1055" fill="none" xmlns="http://www.w3.org/2000/svg">
<path d="M386.496 265.504C531.192 410.201 531.192 644.799 386.496 789.496C241.8 934.192 7.201 934.192 -137.495 789.496C-282.191 644.799 -282.191 410.201 -137.495 265.504C7.201 120.808 241.8 120.808 386.496 265.504Z" fill="#FFAB36" stroke="#1D1D1D" stroke-width="3.96441"/>
<g opacity="0.3">
<path d="M234.639 637.64C212.855 659.424 185.101 674.259 154.886 680.269C124.671 686.279 93.3527 683.195 64.8909 671.405C36.429 659.616 12.1022 639.652 -5.01315 614.037C-22.1285 588.422 -31.2638 558.307 -31.2638 527.5C-31.2638 496.693 -22.1285 466.578 -5.01313 440.963C12.1023 415.348 36.429 395.383 64.8908 383.594C93.3527 371.805 124.671 368.72 154.886 374.73C185.101 380.74 212.855 395.575 234.639 417.359C263.809 446.592 280.191 486.203 280.191 527.5C280.191 568.797 263.809 608.407 234.639 637.64ZM14.9008 417.902C-6.77559 439.578 -21.5374 467.196 -27.5179 497.262C-33.4984 527.328 -30.429 558.492 -18.6978 586.814C-6.96661 615.135 12.8994 639.342 38.3882 656.373C63.8769 673.404 93.8435 682.494 124.499 682.494C155.154 682.494 185.12 673.404 210.609 656.373C236.098 639.342 255.964 615.135 267.695 586.814C279.426 558.492 282.496 527.328 276.515 497.262C270.535 467.196 255.773 439.578 234.096 417.902C205.007 388.876 165.592 372.575 124.499 372.575C83.4051 372.575 43.9898 388.876 14.9008 417.902Z" fill="#1D1D1D"/>
<path d="M246.301 649.301C222.208 673.394 191.512 689.801 158.094 696.448C124.677 703.095 90.0386 699.683 58.5602 686.643C27.0818 673.603 0.177127 651.522 -18.7515 623.191C-37.6801 594.861 -47.7824 561.553 -47.7809 527.481C-47.7793 493.409 -37.6741 460.102 -18.743 431.773C0.188159 403.444 27.0948 381.365 58.5744 368.328C90.0539 355.291 124.692 351.882 158.11 358.532C191.527 365.182 222.221 381.592 246.312 405.687C278.569 438.018 296.683 481.825 296.681 527.496C296.679 573.167 278.561 616.972 246.301 649.301ZM3.22933 406.23C-20.7477 430.22 -37.073 460.78 -43.6822 494.048C-50.2914 527.316 -46.8878 561.796 -33.9017 593.129C-20.9156 624.463 1.06977 651.242 29.2746 670.081C57.4794 688.92 90.6369 698.973 124.555 698.968C158.473 698.964 191.627 688.902 219.827 670.055C248.027 651.209 270.005 624.424 282.983 593.087C295.96 561.75 299.355 527.269 292.737 494.003C286.118 460.737 269.785 430.181 245.801 406.197C213.607 374.077 169.985 356.042 124.509 356.048C79.0319 356.054 35.415 374.101 3.22933 406.23Z" fill="#1D1D1D"/>
<path d="M257.973 660.973C231.573 687.369 197.938 705.344 161.322 712.624C124.706 719.905 86.7539 716.164 52.2639 701.876C17.7739 687.587 -11.7046 663.392 -32.4439 632.35C-53.1832 601.308 -64.2519 564.813 -64.2504 527.48C-64.2489 490.148 -53.1772 453.654 -32.4354 422.614C-11.6935 391.573 17.7869 367.38 52.2781 353.095C86.7692 338.809 124.722 335.071 161.337 342.355C197.953 349.638 231.586 367.616 257.984 394.014C293.333 429.443 313.184 477.448 313.182 527.496C313.18 577.543 293.325 625.546 257.973 660.973ZM-8.43173 394.568C-34.7204 420.861 -52.6221 454.359 -59.8731 490.826C-67.1241 527.293 -63.3988 565.091 -49.1682 599.44C-34.9376 633.79 -10.8409 663.149 20.0749 683.804C50.9906 704.459 87.337 715.482 124.518 715.481C161.699 715.479 198.044 704.453 228.958 683.795C259.872 663.138 283.966 633.777 298.194 599.426C312.422 565.075 316.144 527.277 308.89 490.811C301.636 454.344 283.732 420.848 257.441 394.557C222.156 359.352 174.346 339.582 124.502 339.584C74.6584 339.586 26.8506 359.36 -8.43173 394.568Z" fill="#1D1D1D"/>
<path d="M269.646 672.646C236.066 706.22 191.883 727.112 144.626 731.763C97.3691 736.413 49.9614 724.535 10.4806 698.15C-29.0003 671.766 -58.1115 632.509 -71.893 587.067C-85.6745 541.626 -83.2737 492.811 -65.0996 448.941C-46.9255 405.072 -14.1026 368.86 27.7767 346.478C69.656 324.095 118.001 316.925 164.573 326.191C211.146 335.456 253.065 360.583 283.189 397.29C313.313 433.998 329.777 480.014 329.776 527.5C329.846 554.467 324.567 581.18 314.246 606.094C303.925 631.008 288.766 653.628 269.646 672.646ZM-20.1025 382.897C-99.8307 462.625 -99.8415 592.364 -20.1025 672.103C8.504 700.692 44.9454 720.157 84.6139 728.037C124.282 735.917 165.397 731.857 202.758 716.372C240.12 700.886 272.051 674.67 294.514 641.038C316.976 607.406 328.963 567.869 328.957 527.426C328.95 486.982 316.952 447.449 294.479 413.823C272.006 380.198 240.068 353.992 202.701 338.518C165.335 323.043 124.22 318.996 84.5537 326.888C44.8875 334.779 8.45197 354.256 -20.146 382.853L-20.1025 382.897Z" fill="#1D1D1D"/>
<path d="M281.307 684.307C245.027 720.582 197.292 743.156 146.234 748.182C95.1766 753.208 43.9558 740.375 1.29905 711.87C-41.3577 683.364 -72.8111 640.951 -87.7021 591.855C-102.593 542.759 -100 490.019 -80.3655 442.62C-60.7307 395.222 -25.2687 356.098 19.9782 331.914C65.2252 307.73 117.458 299.983 167.776 309.993C218.095 320.002 263.386 347.149 295.933 386.808C328.48 426.467 346.269 476.185 346.269 527.489C346.348 556.625 340.648 585.487 329.497 612.405C318.346 639.323 301.967 663.762 281.307 684.307ZM-31.7748 371.225C-67.9359 407.38 -90.4417 454.955 -95.4576 505.844C-100.473 556.732 -87.689 607.786 -59.2825 650.305C-30.8761 692.824 11.3948 724.178 60.3273 739.025C109.26 753.871 161.826 751.291 209.07 731.725C256.314 712.159 295.311 676.816 319.418 631.72C343.525 586.623 351.249 534.563 341.274 484.41C331.3 434.258 304.243 389.115 264.716 356.674C225.189 324.234 175.635 306.502 124.5 306.502C95.4663 306.423 66.7048 312.102 39.8804 323.212C13.0559 334.321 -11.299 350.64 -31.7748 371.225Z" fill="#1D1D1D"/>
<path d="M292.978 695.979C253.998 734.962 202.707 759.224 147.845 764.63C92.9824 770.035 37.9429 756.251 -7.89553 725.625C-53.734 694.999 -87.535 649.426 -103.539 596.672C-119.544 543.919 -116.761 487.247 -95.6652 436.315C-74.5695 385.383 -36.4663 343.341 12.1521 317.353C60.7705 291.366 116.896 283.04 170.965 293.795C225.034 304.549 273.701 333.719 308.673 376.334C343.646 418.949 362.761 472.371 362.76 527.5C362.846 558.801 356.722 589.809 344.744 618.729C332.766 647.648 315.171 673.905 292.978 695.979ZM-43.4377 359.563C-82.2936 398.419 -106.475 449.546 -111.861 504.231C-117.247 558.917 -103.504 613.779 -72.975 659.468C-42.4459 705.157 2.98111 738.847 55.5656 754.798C108.15 770.748 164.638 767.972 215.405 746.943C266.173 725.913 308.077 687.931 333.979 639.469C359.882 591.006 368.179 535.061 357.457 481.167C346.735 427.273 317.657 378.764 275.179 343.905C232.7 309.047 179.449 289.996 124.499 289.998C93.2969 289.913 62.3883 296.017 33.5619 307.958C4.7355 319.899 -21.436 337.439 -43.4377 359.563Z" fill="#1D1D1D"/>
<path d="M304.65 707.65C262.972 749.324 208.134 775.258 149.48 781.033C90.8251 786.808 31.9826 772.067 -17.022 739.321C-66.0267 706.576 -102.161 657.852 -119.27 601.451C-136.378 545.051 -133.401 484.463 -110.847 430.011C-88.2922 375.559 -47.5553 330.612 4.42323 302.828C56.4017 275.044 116.406 266.142 174.212 277.639C232.018 289.135 284.05 320.319 321.441 365.878C358.833 411.436 379.272 468.55 379.275 527.488C379.368 560.961 372.821 594.12 360.011 625.045C347.202 655.971 328.385 684.048 304.65 707.65ZM-55.1096 347.891C-96.6538 389.451 -122.503 444.129 -128.253 502.61C-134.004 561.092 -119.299 619.758 -86.645 668.613C-53.991 717.468 -5.40789 753.49 50.8271 770.542C107.062 787.593 167.47 784.619 221.758 762.126C276.046 739.633 320.856 699.013 348.553 647.187C376.25 595.36 385.121 535.533 373.654 477.9C362.187 420.266 331.091 368.391 285.666 331.114C240.24 293.836 183.295 273.461 124.531 273.461C91.1541 273.373 58.0908 279.906 27.2554 292.682C-3.58004 305.458 -31.5752 324.223 -55.1096 347.891Z" fill="#1D1D1D"/>
<path d="M316.323 719.323C271.942 763.712 213.543 791.34 151.075 797.498C88.6078 803.655 25.9378 787.963 -26.2562 753.093C-78.4502 718.224 -116.939 666.335 -135.163 606.269C-153.388 546.202 -150.221 481.675 -126.203 423.682C-102.184 365.689 -58.7999 317.818 -3.4424 288.227C51.9151 258.635 115.82 249.154 177.385 261.399C238.949 273.644 294.363 306.857 334.184 355.379C374.005 403.901 395.77 464.729 395.769 527.499C395.869 563.138 388.898 598.443 375.262 631.369C361.625 664.296 341.592 694.191 316.323 719.323ZM-66.7804 336.219C-111.035 380.472 -138.576 438.701 -144.711 500.984C-150.846 563.267 -135.195 625.75 -100.426 677.787C-65.6563 729.824 -13.9193 768.196 45.9699 786.364C105.859 804.532 170.195 801.372 228.016 777.422C285.836 753.473 333.564 710.216 363.066 655.022C392.569 599.828 402.021 536.112 389.812 474.73C377.603 413.348 344.488 358.098 296.11 318.395C247.732 278.692 187.084 256.991 124.5 256.99C88.9615 256.892 53.7565 263.843 20.923 277.443C-11.9105 291.043 -41.7202 311.02 -66.7804 336.219Z" fill="#1D1D1D"/>
<path d="M327.984 730.984C280.904 778.065 218.956 807.364 152.696 813.891C86.4352 820.417 19.9615 803.767 -35.3987 766.776C-90.759 729.786 -131.581 674.744 -150.908 611.03C-170.235 547.315 -166.872 478.87 -141.392 417.358C-115.912 355.845 -69.8908 305.07 -11.1709 273.685C47.549 242.299 115.335 232.246 180.636 245.236C245.938 258.227 304.715 293.458 346.952 344.927C389.19 396.397 412.274 460.919 412.272 527.5C412.375 565.306 404.979 602.757 390.511 637.685C376.043 672.613 354.79 704.325 327.984 730.984ZM-78.4421 324.558C-125.391 371.512 -154.607 433.292 -161.112 499.372C-167.618 565.452 -151.009 631.744 -114.117 686.951C-77.225 742.158 -22.3318 782.866 41.2093 802.138C104.75 821.41 173.008 818.054 234.352 792.641C295.696 767.228 346.331 721.332 377.629 662.772C408.927 604.211 418.952 536.61 405.995 471.487C393.039 406.364 357.903 347.748 306.574 305.627C255.245 263.506 190.899 240.485 124.499 240.487C86.7938 240.386 49.4425 247.764 14.6076 262.195C-20.2274 276.626 -51.8542 297.823 -78.4421 324.558Z" fill="#1D1D1D"/>
<path d="M339.657 742.656C289.868 792.425 224.364 823.39 154.304 830.275C84.2443 837.161 13.9645 819.54 -44.56 780.417C-103.085 741.293 -146.233 683.087 -166.652 615.717C-187.072 548.346 -183.5 475.979 -156.544 410.947C-129.589 345.915 -80.9178 292.242 -18.8246 259.072C43.2685 225.903 114.942 215.29 183.983 229.042C253.024 242.794 315.16 280.06 359.805 334.49C404.45 388.92 428.84 457.146 428.82 527.543C428.918 567.513 421.088 607.106 405.783 644.03C390.479 680.954 368.003 714.476 339.657 742.656ZM-90.1133 312.886C-139.76 362.538 -170.654 427.868 -177.533 497.744C-184.412 567.621 -166.85 637.721 -127.838 696.1C-88.8268 754.479 -30.7802 797.526 36.4114 817.906C103.603 838.286 175.782 834.738 240.651 807.866C305.52 780.994 359.064 732.462 392.162 670.538C425.259 608.613 435.862 537.129 422.163 468.264C408.463 399.399 371.31 337.415 317.033 292.872C262.757 248.329 194.714 223.983 124.5 223.983C84.6262 223.876 45.1269 231.678 8.28846 246.938C-28.55 262.198 -61.9959 284.613 -90.1133 312.886Z" fill="#1D1D1D"/>
</g>
<path d="M142.489 517.111C136.766 507.147 124.049 503.708 114.084 509.431C104.12 515.154 100.681 527.871 106.404 537.836C112.127 547.8 124.844 551.239 134.809 545.516C144.773 539.793 148.212 527.076 142.489 517.111Z" fill="#1D1D1D"/>
<g opacity="0.73">
<path opacity="0.4" d="M441.777 463.663C434.302 426.726 420.388 391.393 400.67 359.277L279.704 433.164L123.603 528.462L304.503 555.183L444.709 575.823C450.32 538.554 449.327 500.588 441.777 463.663Z" fill="url(#paint0_linear_1219_250)"/>
<path opacity="0.4" d="M-189.5 592.186C-182.022 629.123 -168.112 664.46 -148.404 696.583L-27.427 622.685L128.674 527.387L-52.2261 500.666L-192.41 479.917C-198.041 517.221 -197.056 555.224 -189.5 592.186Z" fill="url(#paint1_linear_1219_250)"/>
</g>
<path d="M226.459 628.256C281.879 572.836 281.879 482.982 226.459 427.562C171.038 372.142 81.1847 372.142 25.7646 427.562C-29.6555 482.982 -29.6555 572.836 25.7646 628.256C81.1847 683.676 171.038 683.676 226.459 628.256Z" fill="#FFF6F1"/>
<path opacity="0.4" d="M7.97952 827.56C18.9193 831.863 30.0828 835.574 41.4213 838.678L77.2843 707.094L126.144 527.941L39.5212 692.197L-24.0507 812.859C-13.6506 818.341 -2.95783 823.248 7.97952 827.56Z" fill="url(#paint2_linear_1219_250)"/>
<path opacity="0.4" d="M244.254 228.247C233.314 223.944 222.151 220.232 210.812 217.128L174.949 348.713L126.089 527.865L212.68 363.556L276.262 242.905C265.865 237.445 255.18 232.551 244.254 228.247Z" fill="url(#paint3_linear_1219_250)"/>
<circle cx="124.209" cy="527.5" r="14.505" transform="rotate(-45 124.209 527.5)" fill="#1D1D1D"/>
<defs>
<linearGradient id="paint0_linear_1219_250" x1="490.39" y1="455.554" x2="209.207" y2="512.606" gradientUnits="userSpaceOnUse">
<stop stop-color="white"/>
<stop offset="0.19" stop-color="white" stop-opacity="0.74"/>
<stop offset="0.41" stop-color="white" stop-opacity="0.48"/>
<stop offset="0.61" stop-color="white" stop-opacity="0.27"/>
<stop offset="0.78" stop-color="white" stop-opacity="0.12"/>
<stop offset="0.91" stop-color="white" stop-opacity="0.03"/>
<stop offset="1" stop-color="white" stop-opacity="0"/>
</linearGradient>
<linearGradient id="paint1_linear_1219_250" x1="-227.908" y1="608.792" x2="53.2897" y2="551.737" gradientUnits="userSpaceOnUse">
<stop stop-color="white"/>
<stop offset="0.19" stop-color="white" stop-opacity="0.74"/>
<stop offset="0.41" stop-color="white" stop-opacity="0.48"/>
<stop offset="0.61" stop-color="white" stop-opacity="0.27"/>
<stop offset="0.78" stop-color="white" stop-opacity="0.12"/>
<stop offset="0.91" stop-color="white" stop-opacity="0.03"/>
<stop offset="1" stop-color="white" stop-opacity="0"/>
</linearGradient>
<linearGradient id="paint2_linear_1219_250" x1="-5.13146" y1="861.378" x2="99.7261" y2="595.453" gradientUnits="userSpaceOnUse">
<stop stop-color="white"/>
<stop offset="0.18" stop-color="white" stop-opacity="0.74"/>
<stop offset="0.39" stop-color="white" stop-opacity="0.48"/>
<stop offset="0.57" stop-color="white" stop-opacity="0.27"/>
<stop offset="0.73" stop-color="white" stop-opacity="0.12"/>
<stop offset="0.86" stop-color="white" stop-opacity="0.03"/>
<stop offset="0.94" stop-color="white" stop-opacity="0"/>
</linearGradient>
<linearGradient id="paint3_linear_1219_250" x1="257.568" y1="194.339" x2="152.71" y2="460.264" gradientUnits="userSpaceOnUse">
<stop stop-color="white"/>
<stop offset="0.18" stop-color="white" stop-opacity="0.74"/>
<stop offset="0.39" stop-color="white" stop-opacity="0.48"/>
<stop offset="0.57" stop-color="white" stop-opacity="0.27"/>
<stop offset="0.73" stop-color="white" stop-opacity="0.12"/>
<stop offset="0.86" stop-color="white" stop-opacity="0.03"/>
<stop offset="0.94" stop-color="white" stop-opacity="0"/>
</linearGradient>
</defs>
</svg>
