<svg width="746" height="746" viewBox="0 0 746 746" fill="none" xmlns="http://www.w3.org/2000/svg">
<path d="M743.312 372.795C743.312 577.426 577.426 743.312 372.795 743.312C168.163 743.312 2.27676 577.426 2.27676 372.795C2.27676 168.163 168.163 2.27676 372.795 2.27676C577.426 2.27676 743.312 168.163 743.312 372.795Z" fill="#FFAB36" stroke="#1D1D1D" stroke-width="3.96441"/>
<g opacity="0.3">
<path d="M372.793 528.555C341.987 528.555 311.872 519.42 286.257 502.305C260.642 485.189 240.677 460.862 228.888 432.401C217.098 403.939 214.014 372.62 220.024 342.405C226.034 312.19 240.869 284.436 262.653 262.652C284.437 240.868 312.191 226.034 342.406 220.023C372.621 214.013 403.939 217.098 432.401 228.887C460.863 240.676 485.19 260.641 502.305 286.256C519.421 311.871 528.556 341.986 528.556 372.793C528.511 414.09 512.086 453.683 482.885 482.884C453.683 512.086 414.09 528.511 372.793 528.555ZM372.793 217.798C342.138 217.798 312.172 226.888 286.683 243.92C261.194 260.951 241.328 285.157 229.597 313.479C217.866 341.801 214.797 372.965 220.777 403.031C226.758 433.097 241.519 460.714 263.196 482.391C284.872 504.067 312.49 518.829 342.556 524.809C372.622 530.79 403.786 527.72 432.107 515.989C460.429 504.258 484.636 484.392 501.667 458.903C518.698 433.415 527.788 403.448 527.788 372.793C527.743 331.699 511.399 292.302 482.342 263.245C453.284 234.187 413.887 217.843 372.793 217.798Z" fill="#1D1D1D"/>
<path d="M372.794 545.047C338.722 545.047 305.415 534.943 277.085 516.013C248.755 497.083 226.675 470.178 213.637 438.699C200.598 407.22 197.188 372.581 203.836 339.164C210.484 305.747 226.893 275.051 250.987 250.96C275.081 226.868 305.777 210.462 339.195 203.817C372.613 197.172 407.251 200.585 438.729 213.626C470.207 226.667 497.111 248.75 516.038 277.081C534.965 305.413 545.066 338.721 545.063 372.793C545.01 418.464 526.843 462.249 494.547 494.542C462.252 526.835 418.465 544.998 372.794 545.047ZM372.794 201.292C338.876 201.301 305.723 211.367 277.526 230.217C249.328 249.068 227.354 275.856 214.38 307.194C201.407 338.533 198.017 373.015 204.64 406.28C211.262 439.545 227.6 470.099 251.587 494.079C275.573 518.059 306.132 534.389 339.399 541.003C372.666 547.616 407.146 544.217 438.481 531.235C469.817 518.253 496.599 496.272 515.441 468.069C534.284 439.867 544.341 406.711 544.341 372.793C544.289 327.316 526.196 283.718 494.035 251.565C461.874 219.413 418.271 201.332 372.794 201.292Z" fill="#1D1D1D"/>
<path d="M372.794 561.553C335.462 561.55 298.968 550.477 267.929 529.734C236.889 508.991 212.698 479.51 198.413 445.018C184.129 410.526 180.393 372.573 187.678 335.958C194.963 299.343 212.942 265.711 239.341 239.314C265.741 212.916 299.375 194.94 335.99 187.658C372.606 180.376 410.558 184.115 445.049 198.402C479.539 212.69 509.019 236.884 529.76 267.925C550.5 298.966 561.57 335.46 561.57 372.793C561.513 422.84 541.606 470.822 506.215 506.209C470.825 541.597 422.842 561.501 372.794 561.553ZM372.794 184.8C335.614 184.803 299.269 195.831 268.355 216.49C237.442 237.149 213.349 266.51 199.123 300.862C184.896 335.213 181.176 373.012 188.431 409.478C195.687 445.944 213.592 479.44 239.884 505.729C266.176 532.019 299.673 549.922 336.14 557.175C372.607 564.427 410.405 560.703 444.755 546.474C479.105 532.245 508.465 508.149 529.121 477.234C549.777 446.32 560.803 409.974 560.803 372.793C560.746 322.949 540.919 275.163 505.673 239.919C470.426 204.676 422.638 184.853 372.794 184.8Z" fill="#1D1D1D"/>
<path d="M372.795 578.062C325.309 578.057 279.294 561.588 242.59 531.461C205.886 501.334 180.763 459.412 171.502 412.838C162.242 366.264 169.416 317.921 191.803 276.044C214.19 234.167 250.405 201.347 294.276 183.178C338.148 165.008 386.963 162.612 432.403 176.398C477.843 190.184 517.097 219.299 543.478 258.783C569.858 298.266 581.732 345.675 577.077 392.932C572.421 440.189 551.524 484.369 517.947 517.946C498.927 537.064 476.306 552.221 451.391 562.539C426.476 572.858 399.762 578.134 372.795 578.062ZM372.795 168.295C260.042 168.295 168.295 260.026 168.295 372.794C168.307 413.238 180.311 452.77 202.789 486.391C225.268 520.013 257.21 546.215 294.579 561.683C331.947 577.152 373.063 581.193 412.728 573.295C452.393 565.398 488.826 545.916 517.419 517.314C546.013 488.712 565.484 452.274 573.369 412.606C581.255 372.939 577.202 331.824 561.722 294.46C546.242 257.096 520.031 225.161 486.402 202.693C452.774 180.225 413.238 168.233 372.795 168.233V168.295Z" fill="#1D1D1D"/>
<path d="M372.795 594.553C321.49 594.55 271.774 576.758 232.117 544.208C192.46 511.659 165.316 466.366 155.309 416.047C145.302 365.728 153.053 313.496 177.239 268.25C201.426 223.005 240.552 187.545 287.952 167.913C335.351 148.281 388.092 145.692 437.187 160.586C486.281 175.48 528.693 206.936 557.196 249.594C585.699 292.253 598.529 343.474 593.5 394.532C588.471 445.589 565.894 493.323 529.616 529.601C509.07 550.259 484.63 566.637 457.712 577.786C430.793 588.935 401.931 594.634 372.795 594.553ZM372.795 151.788C321.659 151.784 272.105 169.51 232.574 201.947C193.044 234.384 165.983 279.525 156.004 329.677C146.025 379.829 153.744 431.889 177.847 476.988C201.949 522.086 240.944 557.432 288.186 577.003C335.427 596.574 387.994 599.159 436.928 584.317C485.862 569.475 528.135 538.124 556.546 495.608C584.956 453.091 597.745 402.039 592.734 351.15C587.723 300.261 565.221 252.684 529.064 216.525C508.59 195.939 484.236 179.618 457.413 168.505C430.589 157.393 401.828 151.711 372.795 151.788Z" fill="#1D1D1D"/>
<path d="M372.794 611.058C317.665 611.061 264.242 591.948 221.626 556.977C179.01 522.006 149.838 473.34 139.081 419.272C128.324 365.203 136.648 309.078 162.634 260.458C188.62 211.839 230.66 173.734 281.591 152.636C332.523 131.539 389.194 128.754 441.948 144.756C494.703 160.758 540.277 194.558 570.905 240.395C601.532 286.232 615.319 341.271 609.915 396.134C604.512 450.997 580.252 502.288 541.27 541.269C519.197 563.463 492.941 581.059 464.022 593.039C435.103 605.018 404.095 611.143 372.794 611.058ZM372.794 135.295C317.843 135.295 264.593 154.348 222.116 189.208C179.638 224.069 150.563 272.579 139.843 326.474C129.123 380.368 137.422 436.312 163.326 484.774C189.231 533.236 231.137 571.216 281.905 592.243C332.673 613.271 389.161 616.045 441.745 600.092C494.329 584.14 539.754 550.448 570.282 504.757C600.809 459.067 614.549 404.205 609.161 349.519C603.773 294.833 579.59 243.708 540.733 204.854C518.73 182.731 492.558 165.191 463.731 153.252C434.904 141.312 403.995 135.209 372.794 135.295Z" fill="#1D1D1D"/>
<path d="M372.794 627.565C313.855 627.562 256.741 607.124 211.183 569.732C165.624 532.341 134.44 480.309 122.943 422.503C111.446 364.697 120.348 304.693 148.131 252.714C175.915 200.736 220.862 159.999 275.314 137.444C329.766 114.889 390.354 111.912 446.754 129.02C503.155 146.128 551.879 182.263 584.625 231.267C617.37 280.272 632.112 339.114 626.337 397.769C620.562 456.423 594.629 511.261 552.955 552.939C529.353 576.674 501.276 595.491 470.351 608.301C439.426 621.111 406.267 627.658 372.794 627.565ZM372.794 118.788C314.03 118.799 257.089 139.185 211.67 176.471C166.252 213.758 135.166 265.638 123.71 323.274C112.254 380.91 121.136 440.735 148.843 492.556C176.55 544.377 221.368 584.989 275.66 607.472C329.952 629.954 390.36 632.917 446.592 615.855C502.824 598.793 551.4 562.761 584.045 513.9C616.69 465.038 631.383 406.37 625.622 347.889C619.86 289.409 594.001 234.736 552.449 193.184C528.91 169.52 500.911 150.76 470.073 137.99C439.235 125.22 406.171 118.694 372.794 118.788Z" fill="#1D1D1D"/>
<path d="M372.795 644.073C310.025 644.079 249.194 622.32 200.669 582.503C152.143 542.686 118.925 487.275 106.675 425.712C94.425 364.149 103.9 300.242 133.487 244.882C163.073 189.522 210.94 146.134 268.931 122.11C326.922 98.0863 391.449 94.9139 451.517 113.133C511.585 131.353 563.477 169.837 598.351 222.027C633.225 274.218 648.924 336.887 642.771 399.355C636.619 461.823 608.997 520.225 564.611 564.61C539.481 589.881 509.588 609.916 476.663 623.556C443.737 637.196 408.433 644.169 372.795 644.073ZM372.795 102.282C310.21 102.282 249.562 123.981 201.183 163.684C152.805 203.386 119.689 258.635 107.479 320.017C95.2685 381.398 104.719 445.115 134.221 500.309C163.722 555.504 211.449 598.762 269.269 622.712C327.089 646.663 391.425 649.824 451.315 631.657C511.204 613.491 562.942 575.12 597.712 523.084C632.483 471.047 648.134 408.564 642.001 346.281C635.867 283.998 608.327 225.769 564.074 181.515C539.014 156.315 509.205 136.337 476.371 122.737C443.538 109.137 408.333 102.184 372.795 102.282Z" fill="#1D1D1D"/>
<path d="M372.794 660.564C306.213 660.565 241.691 637.479 190.223 595.241C138.755 553.002 103.524 494.224 90.5349 428.923C77.5456 363.621 87.6008 295.835 118.987 237.116C150.374 178.397 201.15 132.377 262.663 106.898C324.176 81.419 392.621 78.0574 456.335 97.3859C520.049 116.714 575.09 157.537 612.079 212.898C649.069 268.259 665.718 334.733 659.19 400.994C652.662 467.254 623.361 529.201 576.28 576.28C549.62 603.086 517.908 624.337 482.98 638.805C448.051 653.272 410.6 660.668 372.794 660.564ZM372.794 85.7911C306.394 85.7944 242.05 108.821 190.725 150.946C139.4 193.072 104.269 251.691 91.3177 316.815C78.3668 381.939 88.3974 449.539 119.701 508.097C151.004 566.655 201.642 612.547 262.988 637.954C324.335 663.362 392.592 666.712 456.132 647.435C519.671 628.157 574.561 587.445 611.448 532.234C648.336 477.024 664.939 410.731 658.428 344.652C651.917 278.572 622.696 216.795 575.743 169.845C549.152 143.111 517.524 121.917 482.688 107.49C447.851 93.0616 410.499 85.6865 372.794 85.7911Z" fill="#1D1D1D"/>
<path d="M372.795 677.071C302.397 677.057 234.183 652.634 179.774 607.963C125.366 563.292 88.1301 501.138 74.4115 432.09C60.6929 363.042 71.3404 291.374 104.54 229.297C137.739 167.22 191.436 118.575 256.481 91.6507C321.526 64.7265 393.895 61.1892 461.255 81.6414C528.616 102.094 586.801 145.27 625.897 203.813C664.992 262.357 682.578 332.645 675.659 402.701C668.74 472.758 637.743 538.247 587.951 588.012C559.757 616.344 526.224 638.804 489.292 654.091C452.361 669.378 412.765 677.189 372.795 677.071ZM372.795 69.2848C302.58 69.2886 234.539 93.6379 180.265 138.184C125.991 182.73 88.8414 244.717 75.1461 313.582C61.4508 382.448 72.0572 453.932 105.158 515.854C138.259 577.777 191.806 626.306 256.677 653.174C321.547 680.042 393.727 683.586 460.917 663.203C528.107 642.819 586.152 599.769 625.16 541.387C664.168 483.006 681.726 412.905 674.843 343.028C667.96 273.152 637.062 207.824 587.413 158.176C559.294 129.904 525.847 107.491 489.008 92.2329C452.168 76.9748 412.669 69.1749 372.795 69.2848Z" fill="#1D1D1D"/>
</g>
<path d="M392.86 378.168C395.859 367.076 389.298 355.652 378.206 352.653C367.113 349.653 355.689 356.214 352.69 367.307C349.691 378.4 356.252 389.823 367.344 392.823C378.437 395.822 389.861 389.261 392.86 378.168Z" fill="#1D1D1D"/>
<g opacity="0.73">
<path opacity="0.4" d="M642.282 552.004C663.115 520.6 678.261 485.776 687.027 449.124L549.246 415.834L371.479 372.84L480.501 519.65L565.046 633.386C595.367 611 621.511 583.452 642.282 552.004Z" fill="url(#paint0_linear_1482_509)"/>
<path opacity="0.4" d="M105.023 196.502C84.192 227.909 69.0416 262.732 60.2627 299.382L198.06 332.672L375.826 375.666L266.804 228.856L182.351 115.059C151.992 137.455 125.816 165.024 105.023 196.502Z" fill="url(#paint1_linear_1482_509)"/>
</g>
<path d="M373.645 516.135C452.02 516.135 515.557 452.599 515.557 374.223C515.557 295.847 452.02 232.311 373.645 232.311C295.269 232.311 231.733 295.847 231.733 374.223C231.733 452.599 295.269 516.135 373.645 516.135Z" fill="#FFF6F1"/>
<path opacity="0.4" d="M78.2275 502.576C82.9204 513.354 88.1897 523.872 94.0126 534.085L212.416 466.399L373.645 374.269L196.247 429.163L65.9741 469.532C69.4518 480.762 73.5423 491.793 78.2275 502.576Z" fill="url(#paint2_linear_1482_509)"/>
<path opacity="0.4" d="M669.077 245.869C664.384 235.091 659.115 224.572 653.292 214.36L534.889 282.046L373.66 374.176L551.073 319.22L681.346 278.867C677.855 267.654 673.759 256.639 669.077 245.869Z" fill="url(#paint3_linear_1482_509)"/>
<circle cx="372.588" cy="372.588" r="14.505" fill="#1D1D1D"/>
<defs>
<linearGradient id="paint0_linear_1482_509" x1="682.391" y1="580.644" x2="443.223" y2="422.16" gradientUnits="userSpaceOnUse">
<stop stop-color="white"/>
<stop offset="0.19" stop-color="white" stop-opacity="0.74"/>
<stop offset="0.41" stop-color="white" stop-opacity="0.48"/>
<stop offset="0.61" stop-color="white" stop-opacity="0.27"/>
<stop offset="0.78" stop-color="white" stop-opacity="0.12"/>
<stop offset="0.91" stop-color="white" stop-opacity="0.03"/>
<stop offset="1" stop-color="white" stop-opacity="0"/>
</linearGradient>
<linearGradient id="paint1_linear_1482_509" x1="66.1219" y1="181.086" x2="305.303" y2="339.579" gradientUnits="userSpaceOnUse">
<stop stop-color="white"/>
<stop offset="0.19" stop-color="white" stop-opacity="0.74"/>
<stop offset="0.41" stop-color="white" stop-opacity="0.48"/>
<stop offset="0.61" stop-color="white" stop-opacity="0.27"/>
<stop offset="0.78" stop-color="white" stop-opacity="0.12"/>
<stop offset="0.91" stop-color="white" stop-opacity="0.03"/>
<stop offset="1" stop-color="white" stop-opacity="0"/>
</linearGradient>
<linearGradient id="paint2_linear_1482_509" x1="45.0439" y1="517.218" x2="307.226" y2="403.327" gradientUnits="userSpaceOnUse">
<stop stop-color="white"/>
<stop offset="0.18" stop-color="white" stop-opacity="0.74"/>
<stop offset="0.39" stop-color="white" stop-opacity="0.48"/>
<stop offset="0.57" stop-color="white" stop-opacity="0.27"/>
<stop offset="0.73" stop-color="white" stop-opacity="0.12"/>
<stop offset="0.86" stop-color="white" stop-opacity="0.03"/>
<stop offset="0.94" stop-color="white" stop-opacity="0"/>
</linearGradient>
<linearGradient id="paint3_linear_1482_509" x1="702.468" y1="231.307" x2="440.285" y2="345.198" gradientUnits="userSpaceOnUse">
<stop stop-color="white"/>
<stop offset="0.18" stop-color="white" stop-opacity="0.74"/>
<stop offset="0.39" stop-color="white" stop-opacity="0.48"/>
<stop offset="0.57" stop-color="white" stop-opacity="0.27"/>
<stop offset="0.73" stop-color="white" stop-opacity="0.12"/>
<stop offset="0.86" stop-color="white" stop-opacity="0.03"/>
<stop offset="0.94" stop-color="white" stop-opacity="0"/>
</linearGradient>
</defs>
</svg>
